<svg width="44" height="44" viewBox="0 0 44 44" fill="none" xmlns="http://www.w3.org/2000/svg">
<path d="M9.51785 22C9.51785 20.9645 10.3573 20.125 11.3929 20.125H20.1244V11.3934C20.1244 10.3579 20.9639 9.51842 21.9994 9.51842C23.0349 9.51842 23.8744 10.3579 23.8744 11.3934V20.125H32.6061C33.6416 20.125 34.4811 20.9645 34.4811 22C34.4811 23.0356 33.6416 23.875 32.6061 23.875H23.8744V32.6066C23.8744 33.6422 23.0349 34.4816 21.9994 34.4816C20.9639 34.4816 20.1244 33.6422 20.1244 32.6066V23.875H11.3929C10.3573 23.875 9.51785 23.0356 9.51785 22Z" fill="black"/>
<path fill-rule="evenodd" clip-rule="evenodd" d="M10.2912 1.42193C18.0101 0.559228 25.9886 0.559228 33.7075 1.42193C38.2734 1.93224 41.9607 5.52885 42.4978 10.1212C43.4209 18.0136 43.4209 25.9865 42.4978 33.8788C41.9607 38.4712 38.2734 42.0679 33.7075 42.5782C25.9886 43.4409 18.0101 43.4409 10.2912 42.5782C5.72527 42.0679 2.03802 38.4712 1.5009 33.8788C0.577825 25.9865 0.577825 18.0136 1.5009 10.1212C2.03802 5.52884 5.72527 1.93224 10.2912 1.42193ZM33.291 5.14872C25.8489 4.31696 18.1498 4.31696 10.7077 5.14872C7.84667 5.46849 5.55654 7.7266 5.22551 10.5569C4.33629 18.1597 4.33629 25.8403 5.22551 33.4432C5.55654 36.2735 7.84667 38.5316 10.7077 38.8514C18.1498 39.6831 25.8489 39.6831 33.291 38.8514C36.152 38.5316 38.4422 36.2735 38.7732 33.4432C39.6624 25.8403 39.6624 18.1597 38.7732 10.5569C38.4422 7.7266 36.152 5.46849 33.291 5.14872Z" fill="black"/>
</svg>
