<svg width="21" height="23" viewBox="0 0 21 23" fill="none" xmlns="http://www.w3.org/2000/svg">
<path fill-rule="evenodd" clip-rule="evenodd" d="M14.9212 1.1925C14.7453 1.02254 14.5069 0.927063 14.2582 0.927063C14.0096 0.927063 13.7711 1.02254 13.5953 1.1925L2.10485 12.3C1.98707 12.4138 1.90279 12.556 1.8607 12.7118L0.610695 17.3378C0.526583 17.6491 0.619507 17.9801 0.85485 18.2076C1.09019 18.4351 1.43267 18.5249 1.75469 18.4436L6.54022 17.2353C6.70139 17.1946 6.84843 17.1131 6.96621 16.9993L18.4567 5.89181C18.8228 5.5379 18.8228 4.96409 18.4567 4.61018L14.9212 1.1925ZM3.61054 13.4077L14.2582 3.11494L16.468 5.251L5.82025 15.5438L2.82929 16.299L3.61054 13.4077Z" fill="white"/>
<path d="M1 20.2604C0.482233 20.2604 0.0625 20.6661 0.0625 21.1666C0.0625 21.6672 0.482233 22.0729 1 22.0729H19.75C20.2678 22.0729 20.6875 21.6672 20.6875 21.1666C20.6875 20.6661 20.2678 20.2604 19.75 20.2604H1Z" fill="white"/>
</svg>
