<svg width="28" height="28" viewBox="0 0 28 28" fill="none" xmlns="http://www.w3.org/2000/svg">
<path fill-rule="evenodd" clip-rule="evenodd" d="M14 4.375C10.2184 4.375 7.28466 6.74336 6.78397 9.625H9.33333C9.81658 9.625 10.2083 10.0168 10.2083 10.5V18.6667C10.2083 19.1499 9.81658 19.5417 9.33333 19.5417H5.83333C4.06142 19.5417 2.625 18.1052 2.625 16.3333V12.8333C2.625 11.3498 3.63197 10.1014 4.99971 9.73437C5.44475 5.64619 9.41943 2.625 14 2.625C18.5806 2.625 22.5553 5.64619 23.0003 9.73437C24.368 10.1014 25.375 11.3498 25.375 12.8333V16.3333C25.375 17.8211 24.3624 19.0723 22.9888 19.4354C22.6146 22.1321 20.2998 24.2083 17.5 24.2083H16.1637C15.8176 25.0635 14.9792 25.6667 14 25.6667C12.7113 25.6667 11.6667 24.622 11.6667 23.3333C11.6667 22.0447 12.7113 21 14 21C14.9792 21 15.8176 21.6032 16.1637 22.4583H17.5C19.2929 22.4583 20.7952 21.2139 21.1902 19.5417H18.6667C18.1834 19.5417 17.7917 19.1499 17.7917 18.6667V10.5C17.7917 10.0168 18.1834 9.625 18.6667 9.625H21.216C20.7153 6.74336 17.7816 4.375 14 4.375ZM5.83333 11.375C5.02792 11.375 4.375 12.0279 4.375 12.8333V16.3333C4.375 17.1387 5.02792 17.7917 5.83333 17.7917H8.45833V11.375H5.83333ZM23.625 12.8333C23.625 12.0279 22.9721 11.375 22.1667 11.375H19.5417V17.7917H22.1667C22.9721 17.7917 23.625 17.1387 23.625 16.3333V12.8333Z" fill="white"/>
</svg>
