<svg width="22" height="23" viewBox="0 0 22 23" fill="none" xmlns="http://www.w3.org/2000/svg">
<path fill-rule="evenodd" clip-rule="evenodd" d="M19.5097 2.62325C17.842 2.10966 16.0332 2.10966 14.3656 2.62325C13.8013 8.46823 13.8013 14.3538 14.3656 20.1988C16.0332 20.7124 17.842 20.7124 19.5097 20.1988C20.074 14.3538 20.074 8.46823 19.5097 2.62325ZM21.3633 2.31319C21.9561 8.36399 21.9561 14.4581 21.3633 20.5089C21.298 21.1759 20.8401 21.7365 20.2079 21.9413C18.0915 22.6271 15.7838 22.6271 13.6674 21.9413C13.0352 21.7365 12.5773 21.1759 12.512 20.5089C11.9192 14.4581 11.9192 8.36399 12.512 2.31319C12.5773 1.64619 13.0352 1.08561 13.6674 0.88074C15.7838 0.194946 18.0915 0.194946 20.2079 0.88074C20.8401 1.08561 21.298 1.64619 21.3633 2.31319Z" fill="white"/>
<path fill-rule="evenodd" clip-rule="evenodd" d="M7.63465 2.62325C5.96704 2.10966 4.15825 2.10966 2.49063 2.62325C1.9263 8.46823 1.9263 14.3538 2.49063 20.1988C4.15825 20.7124 5.96704 20.7124 7.63465 20.1988C8.19899 14.3538 8.19899 8.46823 7.63465 2.62325ZM9.48831 2.31319C10.0811 8.36399 10.0811 14.4581 9.48831 20.5089C9.42297 21.1759 8.9651 21.7365 8.33289 21.9413C6.21652 22.6271 3.90876 22.6271 1.7924 21.9413C1.16018 21.7365 0.702318 21.1759 0.636973 20.5089C0.0441859 14.4581 0.0441862 8.36399 0.636974 2.31319C0.702319 1.64619 1.16018 1.0856 1.7924 0.880739C3.90876 0.194946 6.21653 0.194946 8.33289 0.880739C8.96511 1.08561 9.42297 1.64619 9.48831 2.31319Z" fill="white"/>
</svg>
