<svg width="24" height="25" viewBox="0 0 24 25" fill="none" xmlns="http://www.w3.org/2000/svg">
<path fill-rule="evenodd" clip-rule="evenodd" d="M10.0625 4.19226C5.49792 4.66055 1.9375 8.51063 1.9375 13.1908C1.9375 18.187 5.99492 22.2372 11 22.2372C15.6885 22.2372 19.5455 18.6831 20.0146 14.1266H11C10.4822 14.1266 10.0625 13.7077 10.0625 13.1908V4.19226ZM0.0625 13.1908C0.0625 7.16095 4.95939 2.27278 11 2.27278C11.5178 2.27278 11.9375 2.69176 11.9375 3.20861V12.255H21C21.5178 12.255 21.9375 12.674 21.9375 13.1908C21.9375 19.2207 17.0406 24.1089 11 24.1089C4.95939 24.1089 0.0625 19.2207 0.0625 13.1908Z" fill="white"/>
<path fill-rule="evenodd" clip-rule="evenodd" d="M15.375 2.80139V8.8236H21.4079C20.7042 5.8484 18.3555 3.50392 15.375 2.80139ZM14.7475 0.789979C19.2729 1.35214 22.8598 4.93262 23.4229 9.44997C23.5082 10.1338 22.9404 10.6953 22.25 10.6953H14.125C13.7798 10.6953 13.5 10.4159 13.5 10.0714V1.96083C13.5 1.27171 14.0624 0.704878 14.7475 0.789979Z" fill="white"/>
</svg>
