<svg width="36" height="34" viewBox="0 0 36 34" fill="none" xmlns="http://www.w3.org/2000/svg">
<path d="M19.0002 30.0208C18.1372 30.0208 17.4377 30.7203 17.4377 31.5833C17.4377 32.4462 18.1372 33.1458 19.0002 33.1458H31.5002C33.5137 33.1458 35.146 31.5135 35.146 29.5V4.49996C35.146 2.48642 33.5137 0.854126 31.5002 0.854126L19.0002 0.854126C18.1372 0.854126 17.4377 1.55368 17.4377 2.41663C17.4377 3.27957 18.1372 3.97913 19.0002 3.97913L31.5002 3.97913C31.7878 3.97913 32.021 4.21231 32.021 4.49996L32.021 29.5C32.021 29.7876 31.7878 30.0208 31.5002 30.0208H19.0002Z" fill="#503E9D"/>
<path fill-rule="evenodd" clip-rule="evenodd" d="M24.2149 21.9275C25.6532 21.9275 26.8191 20.7616 26.8191 19.3233V14.6556C26.8191 13.2174 25.6532 12.0514 24.2149 12.0514L14.6053 12.0514C14.5917 11.8985 14.5775 11.7455 14.5627 11.5926L14.4501 10.4345C14.2784 8.66765 12.4021 7.6095 10.8012 8.37671C7.39659 10.0084 4.31443 12.2412 1.70299 14.9677L1.49632 15.1835C0.529222 16.1933 0.529222 17.7856 1.49632 18.7954L1.70299 19.0111C4.31443 21.7377 7.39659 23.9705 10.8012 25.6022C12.4021 26.3694 14.2784 25.3113 14.4501 23.5444L14.5627 22.3863C14.5775 22.2334 14.5917 22.0805 14.6053 21.9275H24.2149ZM13.1566 18.8025C12.6017 18.8025 12.1111 19.0927 11.8337 19.5332C11.6986 19.7478 11.614 19.998 11.5972 20.2677C11.5594 20.8737 11.5111 21.4792 11.4523 22.084L11.4196 22.4201C9.26121 21.3077 7.25675 19.9225 5.45511 18.2998C4.98771 17.8788 4.53395 17.4418 4.0947 16.9895C6.22707 14.7935 8.70123 12.9597 11.4196 11.5588L11.4523 11.8949C11.5111 12.4997 11.5594 13.1052 11.5972 13.7112C11.6485 14.5348 12.3315 15.1764 13.1566 15.1764L23.6941 15.1764V18.8025H13.1566Z" fill="#503E9D"/>
</svg>
