<svg width="24" height="24" viewBox="0 0 24 24" fill="none" xmlns="http://www.w3.org/2000/svg">
<path d="M15.9999 6.99998C15.9999 6.4477 16.4477 5.99998 16.9999 5.99998C17.5522 5.99998 17.9999 6.4477 17.9999 6.99998C17.9999 7.55227 17.5522 7.99998 16.9999 7.99998C16.4477 7.99998 15.9999 7.55227 15.9999 6.99998Z" fill="white"/>
<path fill-rule="evenodd" clip-rule="evenodd" d="M11.9999 7.24998C9.37659 7.24998 7.24994 9.37663 7.24994 12C7.24994 14.6233 9.37659 16.75 11.9999 16.75C14.6233 16.75 16.7499 14.6233 16.7499 12C16.7499 9.37663 14.6233 7.24998 11.9999 7.24998ZM8.74994 12C8.74994 10.2051 10.205 8.74998 11.9999 8.74998C13.7949 8.74998 15.2499 10.2051 15.2499 12C15.2499 13.7949 13.7949 15.25 11.9999 15.25C10.205 15.25 8.74994 13.7949 8.74994 12Z" fill="white"/>
<path fill-rule="evenodd" clip-rule="evenodd" d="M17.2582 2.833C13.7916 2.44556 10.2083 2.44556 6.74171 2.833C4.72965 3.05788 3.10532 4.64289 2.86876 6.66542C2.45423 10.2097 2.45423 13.7903 2.86876 17.3346C3.10532 19.3571 4.72965 20.9421 6.74171 21.167C10.2083 21.5544 13.7916 21.5544 17.2582 21.167C19.2702 20.9421 20.8946 19.3571 21.1311 17.3346C21.5457 13.7903 21.5457 10.2097 21.1311 6.66542C20.8946 4.64289 19.2703 3.05788 17.2582 2.833ZM6.90832 4.32372C10.2642 3.94865 13.7357 3.94865 17.0916 4.32372C18.4217 4.47238 19.4872 5.52199 19.6413 6.83967C20.0423 10.2682 20.0423 13.7318 19.6413 17.1603C19.4872 18.478 18.4217 19.5276 17.0916 19.6762C13.7357 20.0513 10.2642 20.0513 6.90832 19.6762C5.57821 19.5276 4.51272 18.478 4.35861 17.1603C3.95761 13.7318 3.95761 10.2682 4.35861 6.83967C4.51272 5.52199 5.57821 4.47238 6.90832 4.32372Z" fill="white"/>
</svg>
