<svg width="24" height="20" viewBox="0 0 24 20" fill="none" xmlns="http://www.w3.org/2000/svg">
<path d="M14.5004 6.08049C14.5004 5.0468 15.3398 4.20883 16.3754 4.20883C17.4109 4.20883 18.2504 5.0468 18.2504 6.08049C18.2504 7.11419 17.4109 7.95216 16.3754 7.95216C15.3398 7.95216 14.5004 7.11419 14.5004 6.08049Z" fill="white"/>
<path fill-rule="evenodd" clip-rule="evenodd" d="M6.0848 0.663341C10.0211 0.321774 13.9797 0.321774 17.916 0.663341L19.8038 0.827151C21.6101 0.983893 23.0735 2.356 23.3431 4.1458C23.9101 7.90998 23.9101 11.7376 23.3431 15.5018C23.0735 17.2916 21.6101 18.6637 19.8038 18.8205L17.916 18.9843C13.9797 19.3259 10.0211 19.3259 6.0848 18.9843L4.19701 18.8205C2.39067 18.6637 0.927333 17.2916 0.657711 15.5018C0.090659 11.7376 0.090659 7.90998 0.657711 4.1458C0.927333 2.356 2.39067 0.983893 4.19701 0.827151L6.0848 0.663341ZM17.7536 2.52797C13.9253 2.19578 10.0754 2.19578 6.24717 2.52797L4.35938 2.69178C3.41647 2.7736 2.65261 3.48985 2.51186 4.42413C2.18994 6.56109 2.0602 8.71956 2.12263 10.8739L6.96246 6.04265C7.14504 5.8604 7.39483 5.76138 7.65291 5.76895C7.911 5.77653 8.15453 5.89001 8.32607 6.08265L12.9154 11.2364L16.0789 10.1838C16.4327 10.0661 16.8227 10.1689 17.0722 10.4456L21.4711 15.3245C21.4779 15.2912 21.4838 15.2575 21.4889 15.2235C22.0282 11.6438 22.0282 8.0038 21.4889 4.42413C21.3482 3.48985 20.5843 2.7736 19.6414 2.69178L17.7536 2.52797ZM20.2756 16.7964L16.0893 12.1532L12.9218 13.2072C12.5661 13.3256 12.1738 13.2209 11.9247 12.9411L7.58524 8.06792L2.28063 13.3631C2.3416 13.9846 2.41868 14.605 2.51186 15.2235C2.65261 16.1578 3.41647 16.874 4.35938 16.9558L6.24718 17.1197C10.0754 17.4519 13.9254 17.4519 17.7536 17.1197L19.6414 16.9558C19.8648 16.9365 20.0782 16.8815 20.2756 16.7964Z" fill="white"/>
</svg>
