<svg width="22" height="22" viewBox="0 0 22 22" fill="none" xmlns="http://www.w3.org/2000/svg">
<path d="M4.75893 10.6174C4.75893 10.1006 5.17866 9.68159 5.69643 9.68159H10.0622V5.32355C10.0622 4.80671 10.4819 4.38772 10.9997 4.38772C11.5175 4.38772 11.9372 4.80671 11.9372 5.32355V9.68159H16.303C16.8208 9.68159 17.2405 10.1006 17.2405 10.6174C17.2405 11.1343 16.8208 11.5533 16.303 11.5533H11.9372V15.9113C11.9372 16.4281 11.5175 16.8471 10.9997 16.8471C10.4819 16.8471 10.0622 16.4281 10.0622 15.9113V11.5533H5.69643C5.17866 11.5533 4.75893 11.1343 4.75893 10.6174Z" fill="white"/>
<path fill-rule="evenodd" clip-rule="evenodd" d="M5.14561 0.346679C9.00505 -0.0839028 12.9943 -0.0839028 16.8537 0.346679C19.1367 0.601381 20.9803 2.39648 21.2489 4.6886C21.7104 8.62773 21.7104 12.6071 21.2489 16.5463C20.9803 18.8384 19.1367 20.6335 16.8537 20.8882C12.9943 21.3188 9.00506 21.3188 5.14561 20.8882C2.86263 20.6335 1.01901 18.8384 0.750451 16.5463C0.288912 12.6071 0.288912 8.62773 0.750451 4.6886C1.01901 2.39648 2.86264 0.601381 5.14561 0.346679ZM16.6455 2.20676C12.9244 1.79162 9.07491 1.79162 5.35387 2.20676C3.92333 2.36636 2.77827 3.49341 2.61276 4.90603C2.16814 8.7007 2.16814 12.5342 2.61276 16.3288C2.77827 17.7415 3.92333 18.8685 5.35387 19.0281C9.07491 19.4432 12.9244 19.4432 16.6455 19.0281C18.076 18.8685 19.2211 17.7415 19.3866 16.3288C19.8312 12.5342 19.8312 8.7007 19.3866 4.90603C19.2211 3.49341 18.076 2.36636 16.6455 2.20676Z" fill="white"/>
</svg>
