<svg width="24" height="24" viewBox="0 0 24 24" fill="none" xmlns="http://www.w3.org/2000/svg">
<path fill-rule="evenodd" clip-rule="evenodd" d="M8.1612 2.32524C6.57218 2.14796 4.92729 2.14796 3.33827 2.32524C2.95216 2.36832 2.64766 2.67351 2.60423 3.04417C2.41447 4.66371 2.41447 6.29981 2.60423 7.91935C2.64766 8.29001 2.95216 8.5952 3.33827 8.63828C4.92729 8.81556 6.57218 8.81556 8.1612 8.63828C8.54731 8.5952 8.85181 8.29001 8.89524 7.91935C9.085 6.29981 9.085 4.66371 8.89524 3.04417C8.85181 2.67351 8.54731 2.36832 8.1612 2.32524ZM3.13001 0.46516C4.85744 0.272437 6.64203 0.272437 8.36946 0.46516C9.60801 0.603339 10.6111 1.57659 10.7575 2.82675C10.9642 4.59074 10.9642 6.37278 10.7575 8.13678C10.6111 9.38693 9.60801 10.3602 8.36946 10.4984C6.64203 10.6911 4.85744 10.6911 3.13001 10.4984C1.89146 10.3602 0.888405 9.38693 0.741926 8.13678C0.535243 6.37278 0.535243 4.59074 0.741926 2.82675C0.888405 1.57659 1.89146 0.603339 3.13001 0.46516Z" fill="white"/>
<path fill-rule="evenodd" clip-rule="evenodd" d="M8.1612 14.803C6.57218 14.6257 4.92729 14.6257 3.33827 14.803C2.95216 14.8461 2.64766 15.1513 2.60423 15.5219C2.41447 17.1415 2.41447 18.7776 2.60423 20.3971C2.64766 20.7678 2.95216 21.073 3.33827 21.116C4.92729 21.2933 6.57218 21.2933 8.1612 21.116C8.54731 21.073 8.85181 20.7678 8.89524 20.3971C9.085 18.7776 9.085 17.1415 8.89524 15.5219C8.85181 15.1513 8.54731 14.8461 8.1612 14.803ZM3.13001 12.9429C4.85744 12.7502 6.64203 12.7502 8.36946 12.9429C9.60801 13.0811 10.6111 14.0543 10.7575 15.3045C10.9642 17.0685 10.9642 18.8505 10.7575 20.6145C10.6111 21.8647 9.60801 22.8379 8.36946 22.9761C6.64203 23.1688 4.85744 23.1688 3.13001 22.9761C1.89146 22.8379 0.888405 21.8647 0.741926 20.6145C0.535243 18.8505 0.535243 17.0685 0.741926 15.3045C0.888405 14.0543 1.89146 13.0811 3.13001 12.9429Z" fill="white"/>
<path fill-rule="evenodd" clip-rule="evenodd" d="M20.6612 2.32524C19.0722 2.14796 17.4273 2.14796 15.8383 2.32524C15.4522 2.36832 15.1477 2.67351 15.1042 3.04417C14.9145 4.66371 14.9145 6.29981 15.1042 7.91935C15.1477 8.29001 15.4522 8.5952 15.8383 8.63828C17.4273 8.81556 19.0722 8.81556 20.6612 8.63828C21.0473 8.5952 21.3518 8.29001 21.3952 7.91935C21.585 6.29981 21.585 4.66371 21.3952 3.04417C21.3518 2.67351 21.0473 2.36832 20.6612 2.32524ZM15.63 0.46516C17.3574 0.272437 19.142 0.272437 20.8695 0.46516C22.108 0.603339 23.1111 1.57659 23.2575 2.82675C23.4642 4.59074 23.4642 6.37278 23.2575 8.13678C23.1111 9.38693 22.108 10.3602 20.8695 10.4984C19.142 10.6911 17.3574 10.6911 15.63 10.4984C14.3915 10.3602 13.3884 9.38693 13.2419 8.13678C13.0352 6.37278 13.0352 4.59074 13.2419 2.82675C13.3884 1.57659 14.3915 0.603339 15.63 0.46516Z" fill="white"/>
<path fill-rule="evenodd" clip-rule="evenodd" d="M20.6612 14.803C19.0722 14.6257 17.4273 14.6257 15.8383 14.803C15.4522 14.8461 15.1477 15.1513 15.1042 15.5219C14.9145 17.1415 14.9145 18.7776 15.1042 20.3971C15.1477 20.7678 15.4522 21.073 15.8383 21.116C17.4273 21.2933 19.0722 21.2933 20.6612 21.116C21.0473 21.073 21.3518 20.7678 21.3952 20.3971C21.585 18.7776 21.585 17.1415 21.3952 15.5219C21.3518 15.1513 21.0473 14.8461 20.6612 14.803ZM15.63 12.9429C17.3574 12.7502 19.142 12.7502 20.8695 12.9429C22.108 13.0811 23.1111 14.0543 23.2575 15.3045C23.4642 17.0685 23.4642 18.8505 23.2575 20.6145C23.1111 21.8647 22.108 22.8379 20.8695 22.9761C19.142 23.1688 17.3574 23.1688 15.63 22.9761C14.3915 22.8379 13.3884 21.8647 13.2419 20.6145C13.0352 18.8505 13.0352 17.0685 13.2419 15.3045C13.3884 14.0543 14.3915 13.0811 15.63 12.9429Z" fill="white"/>
</svg>
