<svg width="34" height="37" viewBox="0 0 34 37" fill="none" xmlns="http://www.w3.org/2000/svg">
<path fill-rule="evenodd" clip-rule="evenodd" d="M8.14567 9.62504C8.14567 4.73502 12.1098 0.770874 16.9998 0.770874C21.8899 0.770874 25.854 4.73502 25.854 9.62504C25.854 14.5151 21.8899 18.4792 16.9998 18.4792C12.1098 18.4792 8.14567 14.5151 8.14567 9.62504ZM16.9998 3.89587C13.8357 3.89587 11.2707 6.46091 11.2707 9.62504C11.2707 12.7892 13.8357 15.3542 16.9998 15.3542C20.164 15.3542 22.729 12.7892 22.729 9.62504C22.729 6.46091 20.164 3.89587 16.9998 3.89587Z" fill="#503E9D"/>
<path fill-rule="evenodd" clip-rule="evenodd" d="M8.66651 24.7292C6.07767 24.7292 3.979 26.8279 3.979 29.4167V31.8923C3.979 31.93 4.00632 31.9621 4.04352 31.9682C12.6243 33.3691 21.3754 33.3691 29.9562 31.9682C29.9934 31.9621 30.0207 31.93 30.0207 31.8923V29.4167C30.0207 26.8279 27.922 24.7292 25.3332 24.7292H24.623C24.5681 24.7292 24.5136 24.7379 24.4614 24.7549L22.6582 25.3437C18.9815 26.5443 15.0182 26.5443 11.3415 25.3437L9.53832 24.7549C9.48612 24.7379 9.43156 24.7292 9.37665 24.7292H8.66651ZM0.854004 29.4167C0.854004 25.102 4.35178 21.6042 8.66651 21.6042H9.37665C9.76101 21.6042 10.1429 21.665 10.5083 21.7843L12.3115 22.3731C15.3579 23.3678 18.6418 23.3678 21.6882 22.3731L23.4914 21.7843C23.8567 21.665 24.2387 21.6042 24.623 21.6042H25.3332C29.6479 21.6042 33.1457 25.102 33.1457 29.4167V31.8923C33.1457 33.4615 32.0084 34.7995 30.4597 35.0524C21.5455 36.5078 12.4542 36.5078 3.53999 35.0524C1.99126 34.7995 0.854004 33.4615 0.854004 31.8923L0.854004 29.4167Z" fill="#503E9D"/>
</svg>
