<svg width="28" height="28" viewBox="0 0 28 28" fill="none" xmlns="http://www.w3.org/2000/svg">
<path fill-rule="evenodd" clip-rule="evenodd" d="M14.0001 2.89909L11.2341 5.75587C10.9397 6.05994 10.5342 6.23165 10.1106 6.23165H6.18758V10.1477C6.18758 10.5705 6.01557 10.9753 5.71096 11.2692L2.84908 14.0302L5.71096 16.7913C6.01557 17.0852 6.18758 17.49 6.18758 17.9128V21.8288H10.1106C10.5342 21.8288 10.9397 22.0006 11.2341 22.3046L14.0001 25.1614L16.7661 22.3046C17.0605 22.0006 17.466 21.8288 17.8896 21.8288H21.8126V17.9128C21.8126 17.49 21.9846 17.0852 22.2892 16.7913L25.1511 14.0303L22.2892 11.2692C21.9846 10.9753 21.8126 10.5705 21.8126 10.1477V6.23165H17.8896C17.466 6.23165 17.0605 6.05994 16.7661 5.75587L14.0001 2.89909ZM12.8766 1.36628C13.4908 0.73191 14.5094 0.731911 15.1236 1.36628L18.0222 4.35999H22.1251C22.988 4.35999 23.6876 5.0583 23.6876 5.91971V10.0153L26.6866 12.9087C27.3221 13.5219 27.3221 14.5386 26.6866 15.1518L23.6876 18.0452V22.1408C23.6876 23.0022 22.988 23.7005 22.1251 23.7005H18.0222L15.1236 26.6942C14.5094 27.3286 13.4908 27.3286 12.8766 26.6942L9.97799 23.7005H5.87508C5.01214 23.7005 4.31258 23.0022 4.31258 22.1408V18.0452L1.31354 15.1518C0.67804 14.5386 0.678038 13.5219 1.31354 12.9087L4.31258 10.0153V5.91971C4.31258 5.0583 5.01214 4.35999 5.87508 4.35999H9.978L12.8766 1.36628Z" fill="white"/>
<path fill-rule="evenodd" clip-rule="evenodd" d="M8.06258 14.0302C8.06258 10.7569 10.7209 8.10331 14.0001 8.10331C17.2793 8.10331 19.9376 10.7569 19.9376 14.0302C19.9376 17.3036 17.2793 19.9572 14.0001 19.9572C10.7209 19.9572 8.06258 17.3036 8.06258 14.0302ZM14.0001 9.97498C11.7564 9.97498 9.93758 11.7906 9.93758 14.0302C9.93758 16.2699 11.7564 18.0855 14.0001 18.0855C16.2437 18.0855 18.0626 16.2699 18.0626 14.0302C18.0626 11.7906 16.2437 9.97498 14.0001 9.97498Z" fill="white"/>
</svg>
