<svg width="20" height="22" viewBox="0 0 20 22" fill="none" xmlns="http://www.w3.org/2000/svg">
<path fill-rule="evenodd" clip-rule="evenodd" d="M4.6875 5.62165C4.6875 2.69286 7.06599 0.318604 10 0.318604C12.934 0.318604 15.3125 2.69286 15.3125 5.62165C15.3125 8.55044 12.934 10.9247 10 10.9247C7.06599 10.9247 4.6875 8.55044 4.6875 5.62165ZM10 2.19027C8.10152 2.19027 6.5625 3.72655 6.5625 5.62165C6.5625 7.51675 8.10152 9.05303 10 9.05303C11.8985 9.05303 13.4375 7.51675 13.4375 5.62165C13.4375 3.72655 11.8985 2.19027 10 2.19027Z" fill="white"/>
<path fill-rule="evenodd" clip-rule="evenodd" d="M5 14.668C3.4467 14.668 2.1875 15.925 2.1875 17.4755V18.9582C2.1875 18.9808 2.20389 19.0001 2.22621 19.0037C7.37466 19.8428 12.6253 19.8428 17.7738 19.0037C17.7961 19.0001 17.8125 18.9808 17.8125 18.9582V17.4755C17.8125 15.925 16.5533 14.668 15 14.668H14.5739C14.541 14.668 14.5082 14.6732 14.4769 14.6834L13.395 15.0361C11.189 15.7551 8.81101 15.7551 6.60498 15.0361L5.52309 14.6834C5.49177 14.6732 5.45903 14.668 5.42609 14.668H5ZM0.3125 17.4755C0.3125 14.8913 2.41116 12.7964 5 12.7964H5.42609C5.6567 12.7964 5.88587 12.8328 6.10509 12.9042L7.18698 13.2569C9.01484 13.8527 10.9852 13.8527 12.813 13.2569L13.8949 12.9042C14.1141 12.8328 14.3433 12.7964 14.5739 12.7964H15C17.5888 12.7964 19.6875 14.8913 19.6875 17.4755V18.9582C19.6875 19.8981 19.0051 20.6995 18.0759 20.8509C12.7274 21.7226 7.27262 21.7226 1.92409 20.8509C0.994854 20.6995 0.3125 19.8981 0.3125 18.9582V17.4755Z" fill="white"/>
</svg>
