<svg width="38" height="38" viewBox="0 0 38 38" fill="none" xmlns="http://www.w3.org/2000/svg">
<path fill-rule="evenodd" clip-rule="evenodd" d="M17.9299 3.93321C10.0875 4.48221 3.896 11.0181 3.896 19C3.896 27.3418 10.6584 34.1042 19.0002 34.1042C25.6832 34.1042 31.3537 29.7629 33.3436 23.7473C31.8121 24.3799 30.1337 24.7292 28.3752 24.7292C21.184 24.7292 15.3543 18.8996 15.3543 11.7084C15.3543 8.79349 16.3129 6.10231 17.9299 3.93321ZM0.770996 19C0.770996 8.93235 8.93247 0.770874 19.0002 0.770874C19.9369 0.770874 20.858 0.841658 21.7584 0.978414C22.3812 1.07302 22.8863 1.5324 23.0394 2.1435C23.1925 2.7546 22.9636 3.39786 22.4589 3.77492C20.0402 5.58202 18.4793 8.46271 18.4793 11.7084C18.4793 17.1737 22.9098 21.6042 28.3752 21.6042C30.7381 21.6042 32.9039 20.778 34.6055 19.3972C35.0944 19.0005 35.7737 18.9359 36.3286 19.2336C36.8835 19.5312 37.2055 20.1328 37.1454 20.7596C36.2592 30.0025 28.4745 37.2292 19.0002 37.2292C8.93247 37.2292 0.770996 29.0677 0.770996 19Z" fill="#503E9D"/>
</svg>
