<svg width="158" height="128" viewBox="0 0 158 128" fill="none" xmlns="http://www.w3.org/2000/svg">
<g filter="url(#filter0_d_296_97)">
<rect x="4" width="150" height="120" rx="30" fill="#F3F3F3"/>
<path d="M66.5188 60C66.5188 58.9645 67.3583 58.125 68.3938 58.125H77.1254V49.3934C77.1254 48.3579 77.9648 47.5184 79.0004 47.5184C80.0359 47.5184 80.8754 48.3579 80.8754 49.3934V58.125H89.607C90.6426 58.125 91.482 58.9645 91.482 60C91.482 61.0356 90.6426 61.875 89.607 61.875H80.8754V70.6066C80.8754 71.6422 80.0359 72.4816 79.0004 72.4816C77.9648 72.4816 77.1254 71.6422 77.1254 70.6066V61.875H68.3938C67.3583 61.875 66.5188 61.0356 66.5188 60Z" fill="black"/>
<path fill-rule="evenodd" clip-rule="evenodd" d="M67.2922 39.4219C75.0111 38.5592 82.9896 38.5592 90.7085 39.4219C95.2744 39.9322 98.9616 43.5288 99.4988 48.1212C100.422 56.0136 100.422 63.9865 99.4988 71.8788C98.9616 76.4712 95.2744 80.0679 90.7085 80.5782C82.9896 81.4409 75.0111 81.4409 67.2922 80.5782C62.7262 80.0679 59.039 76.4712 58.5019 71.8788C57.5788 63.9865 57.5788 56.0136 58.5019 48.1212C59.039 43.5288 62.7262 39.9322 67.2922 39.4219ZM90.2919 43.1487C82.8499 42.317 75.1508 42.317 67.7087 43.1487C64.8476 43.4685 62.5575 45.7266 62.2265 48.5569C61.3373 56.1597 61.3373 63.8403 62.2265 71.4432C62.5575 74.2735 64.8476 76.5316 67.7087 76.8514C75.1508 77.6831 82.8499 77.6831 90.2919 76.8514C93.153 76.5316 95.4431 74.2735 95.7742 71.4432C96.6634 63.8403 96.6634 56.1597 95.7742 48.5569C95.4431 45.7266 93.153 43.4685 90.2919 43.1487Z" fill="black"/>
<path d="M55.3457 93.3916L51.8652 104H49.0615L53.8164 91.2031H55.6006L55.3457 93.3916ZM58.2373 104L54.748 93.3916L54.4668 91.2031H56.2686L61.0498 104H58.2373ZM58.0791 99.2363V101.302H51.3203V99.2363H58.0791ZM63.2188 94.4902H65.7588V104.571C65.7588 105.274 65.6299 105.869 65.3721 106.355C65.1143 106.842 64.7422 107.211 64.2559 107.463C63.7695 107.715 63.1807 107.841 62.4893 107.841C62.2725 107.841 62.0615 107.829 61.8564 107.806C61.6455 107.782 61.4287 107.744 61.2061 107.691L61.2148 105.749C61.3555 105.772 61.4932 105.79 61.6279 105.802C61.7568 105.819 61.8887 105.828 62.0234 105.828C62.2871 105.828 62.5068 105.784 62.6826 105.696C62.8584 105.608 62.9902 105.471 63.0781 105.283C63.1719 105.102 63.2188 104.864 63.2188 104.571V94.4902ZM63.0166 92.0117C63.0166 91.6426 63.1455 91.3379 63.4033 91.0977C63.667 90.8574 64.0127 90.7373 64.4404 90.7373C64.874 90.7373 65.2197 90.8574 65.4775 91.0977C65.7354 91.3379 65.8643 91.6426 65.8643 92.0117C65.8643 92.3809 65.7354 92.6855 65.4775 92.9258C65.2197 93.166 64.874 93.2861 64.4404 93.2861C64.0127 93.2861 63.667 93.166 63.4033 92.9258C63.1455 92.6855 63.0166 92.3809 63.0166 92.0117ZM68.3672 99.3418V99.1572C68.3672 98.46 68.4668 97.8184 68.666 97.2324C68.8652 96.6406 69.1553 96.1279 69.5361 95.6943C69.917 95.2607 70.3857 94.9238 70.9424 94.6836C71.499 94.4375 72.1377 94.3145 72.8584 94.3145C73.5791 94.3145 74.2207 94.4375 74.7832 94.6836C75.3457 94.9238 75.8174 95.2607 76.1982 95.6943C76.585 96.1279 76.8779 96.6406 77.0771 97.2324C77.2764 97.8184 77.376 98.46 77.376 99.1572V99.3418C77.376 100.033 77.2764 100.675 77.0771 101.267C76.8779 101.853 76.585 102.365 76.1982 102.805C75.8174 103.238 75.3486 103.575 74.792 103.815C74.2354 104.056 73.5967 104.176 72.876 104.176C72.1553 104.176 71.5137 104.056 70.9512 103.815C70.3945 103.575 69.9229 103.238 69.5361 102.805C69.1553 102.365 68.8652 101.853 68.666 101.267C68.4668 100.675 68.3672 100.033 68.3672 99.3418ZM70.8984 99.1572V99.3418C70.8984 99.7402 70.9336 100.112 71.0039 100.458C71.0742 100.804 71.1855 101.108 71.3379 101.372C71.4961 101.63 71.7012 101.832 71.9531 101.979C72.2051 102.125 72.5127 102.198 72.876 102.198C73.2275 102.198 73.5293 102.125 73.7812 101.979C74.0332 101.832 74.2354 101.63 74.3877 101.372C74.54 101.108 74.6514 100.804 74.7217 100.458C74.7979 100.112 74.8359 99.7402 74.8359 99.3418V99.1572C74.8359 98.7705 74.7979 98.4072 74.7217 98.0674C74.6514 97.7217 74.5371 97.417 74.3789 97.1533C74.2266 96.8838 74.0244 96.6729 73.7725 96.5205C73.5205 96.3682 73.2158 96.292 72.8584 96.292C72.501 96.292 72.1963 96.3682 71.9443 96.5205C71.6982 96.6729 71.4961 96.8838 71.3379 97.1533C71.1855 97.417 71.0742 97.7217 71.0039 98.0674C70.9336 98.4072 70.8984 98.7705 70.8984 99.1572ZM85.5566 101.724V94.4902H88.0879V104H85.7061L85.5566 101.724ZM85.8379 99.7725L86.585 99.7549C86.585 100.388 86.5117 100.977 86.3652 101.521C86.2188 102.061 85.999 102.529 85.7061 102.928C85.4131 103.32 85.0439 103.628 84.5986 103.851C84.1533 104.067 83.6289 104.176 83.0254 104.176C82.5625 104.176 82.1348 104.111 81.7422 103.982C81.3555 103.848 81.0215 103.64 80.7402 103.358C80.4648 103.071 80.248 102.705 80.0898 102.26C79.9375 101.809 79.8613 101.267 79.8613 100.634V94.4902H82.3926V100.651C82.3926 100.933 82.4248 101.17 82.4893 101.363C82.5596 101.557 82.6562 101.715 82.7793 101.838C82.9023 101.961 83.0459 102.049 83.21 102.102C83.3799 102.154 83.5674 102.181 83.7725 102.181C84.2939 102.181 84.7041 102.075 85.0029 101.864C85.3076 101.653 85.5215 101.366 85.6445 101.003C85.7734 100.634 85.8379 100.224 85.8379 99.7725ZM95.6797 94.4902V96.2832H90.1426V94.4902H95.6797ZM91.5137 92.1436H94.0449V101.135C94.0449 101.41 94.0801 101.621 94.1504 101.768C94.2266 101.914 94.3379 102.017 94.4844 102.075C94.6309 102.128 94.8154 102.154 95.0381 102.154C95.1963 102.154 95.3369 102.148 95.46 102.137C95.5889 102.119 95.6973 102.102 95.7852 102.084L95.7939 103.947C95.5771 104.018 95.3428 104.073 95.0908 104.114C94.8389 104.155 94.5605 104.176 94.2559 104.176C93.6992 104.176 93.2129 104.085 92.7969 103.903C92.3867 103.716 92.0703 103.417 91.8477 103.007C91.625 102.597 91.5137 102.058 91.5137 101.39V92.1436ZM102.498 104.176C101.76 104.176 101.098 104.059 100.512 103.824C99.9258 103.584 99.4277 103.253 99.0176 102.831C98.6133 102.409 98.3027 101.92 98.0859 101.363C97.8691 100.801 97.7607 100.203 97.7607 99.5703V99.2188C97.7607 98.498 97.8633 97.8389 98.0684 97.2412C98.2734 96.6436 98.5664 96.125 98.9473 95.6855C99.334 95.2461 99.8027 94.9092 100.354 94.6748C100.904 94.4346 101.525 94.3145 102.217 94.3145C102.891 94.3145 103.488 94.4258 104.01 94.6484C104.531 94.8711 104.968 95.1875 105.319 95.5977C105.677 96.0078 105.946 96.5 106.128 97.0742C106.31 97.6426 106.4 98.2754 106.4 98.9727V100.027H98.8418V98.3398H103.913V98.1465C103.913 97.7949 103.849 97.4814 103.72 97.2061C103.597 96.9248 103.409 96.7021 103.157 96.5381C102.905 96.374 102.583 96.292 102.19 96.292C101.856 96.292 101.569 96.3652 101.329 96.5117C101.089 96.6582 100.893 96.8633 100.74 97.127C100.594 97.3906 100.482 97.7012 100.406 98.0586C100.336 98.4102 100.301 98.7969 100.301 99.2188V99.5703C100.301 99.9512 100.354 100.303 100.459 100.625C100.57 100.947 100.726 101.226 100.925 101.46C101.13 101.694 101.376 101.876 101.663 102.005C101.956 102.134 102.287 102.198 102.656 102.198C103.113 102.198 103.538 102.11 103.931 101.935C104.329 101.753 104.672 101.48 104.959 101.117L106.189 102.453C105.99 102.74 105.718 103.016 105.372 103.279C105.032 103.543 104.622 103.76 104.142 103.93C103.661 104.094 103.113 104.176 102.498 104.176ZM111.373 96.5645V104H108.842V94.4902H111.224L111.373 96.5645ZM114.238 94.4287L114.194 96.7754C114.071 96.7578 113.922 96.7432 113.746 96.7314C113.576 96.7139 113.421 96.7051 113.28 96.7051C112.923 96.7051 112.612 96.752 112.349 96.8457C112.091 96.9336 111.874 97.0654 111.698 97.2412C111.528 97.417 111.399 97.6309 111.312 97.8828C111.229 98.1348 111.183 98.4219 111.171 98.7441L110.661 98.5859C110.661 97.9707 110.723 97.4053 110.846 96.8896C110.969 96.3682 111.147 95.9141 111.382 95.5273C111.622 95.1406 111.915 94.8418 112.261 94.6309C112.606 94.4199 113.002 94.3145 113.447 94.3145C113.588 94.3145 113.731 94.3262 113.878 94.3496C114.024 94.3672 114.145 94.3936 114.238 94.4287Z" fill="black"/>
</g>
<defs>
<filter id="filter0_d_296_97" x="0" y="0" width="158" height="128" filterUnits="userSpaceOnUse" color-interpolation-filters="sRGB">
<feFlood flood-opacity="0" result="BackgroundImageFix"/>
<feColorMatrix in="SourceAlpha" type="matrix" values="0 0 0 0 0 0 0 0 0 0 0 0 0 0 0 0 0 0 127 0" result="hardAlpha"/>
<feOffset dy="4"/>
<feGaussianBlur stdDeviation="2"/>
<feComposite in2="hardAlpha" operator="out"/>
<feColorMatrix type="matrix" values="0 0 0 0 0 0 0 0 0 0 0 0 0 0 0 0 0 0 0.25 0"/>
<feBlend mode="normal" in2="BackgroundImageFix" result="effect1_dropShadow_296_97"/>
<feBlend mode="normal" in="SourceGraphic" in2="effect1_dropShadow_296_97" result="shape"/>
</filter>
</defs>
</svg>
