<svg width="158" height="128" viewBox="0 0 158 128" fill="none" xmlns="http://www.w3.org/2000/svg">
<g filter="url(#filter0_d_298_160)">
<rect x="4" width="150" height="120" rx="30" fill="#F3F3F3"/>
<path d="M73.8387 24C72.7698 24 71.9032 24.8294 71.9032 25.8524V27.7049H60.9355C59.8665 27.7049 59 28.5342 59 29.5573C59 30.5804 59.8665 31.4097 60.9355 31.4097H97.0645C98.1335 31.4097 99 30.5804 99 29.5573C99 28.5342 98.1335 27.7049 97.0645 27.7049H86.0968V25.8524C86.0968 24.8294 85.2302 24 84.1613 24H73.8387Z" fill="black"/>
<path d="M73.8387 44.7473C74.9076 44.7473 75.7742 45.5766 75.7742 46.5997L75.7742 63.8891C75.7742 64.9122 74.9076 65.7415 73.8387 65.7415C72.7698 65.7415 71.9032 64.9122 71.9032 63.8891L71.9032 46.5997C71.9032 45.5766 72.7698 44.7473 73.8387 44.7473Z" fill="black"/>
<path d="M86.0968 46.5997C86.0968 45.5766 85.2302 44.7473 84.1613 44.7473C83.0924 44.7473 82.2258 45.5766 82.2258 46.5997V63.8891C82.2258 64.9122 83.0924 65.7415 84.1613 65.7415C85.2302 65.7415 86.0968 64.9122 86.0968 63.8891V46.5997Z" fill="black"/>
<path fill-rule="evenodd" clip-rule="evenodd" d="M63.494 37.9974C63.6029 37.0593 64.4314 36.3496 65.4176 36.3496H92.5823C93.5686 36.3496 94.3971 37.0593 94.506 37.9974L95.0225 42.4466C95.9588 50.5117 95.9588 58.6512 95.0225 66.7163L94.9716 67.1543C94.6 70.3557 92.0076 72.9084 88.6746 73.355C82.2562 74.215 75.7438 74.215 69.3254 73.355C65.9924 72.9084 63.4 70.3557 63.0283 67.1543L62.9775 66.7163C62.0412 58.6512 62.0412 50.5117 62.9775 42.4466L63.494 37.9974ZM67.15 40.0544L66.8248 42.8557C65.9201 50.6489 65.9201 58.514 66.8248 66.3071L66.8756 66.7451C67.0519 68.2634 68.2814 69.4741 69.8621 69.6859C75.9245 70.4982 82.0755 70.4982 88.1379 69.6859C89.7186 69.4741 90.9481 68.2634 91.1244 66.7451L91.1752 66.3071C92.0799 58.514 92.0799 50.6489 91.1752 42.8557L90.85 40.0544H67.15Z" fill="black"/>
<path d="M40.8226 98.0513C40.8226 97.8228 40.7875 97.6177 40.7172 97.436C40.6527 97.2485 40.5297 97.0786 40.348 96.9263C40.1664 96.7681 39.9115 96.6128 39.5834 96.4604C39.2552 96.3081 38.8304 96.1499 38.309 95.9858C37.7289 95.7983 37.1781 95.5874 36.6566 95.353C36.141 95.1187 35.684 94.8462 35.2855 94.5356C34.8929 94.2192 34.5824 93.853 34.3539 93.437C34.1312 93.021 34.0199 92.5376 34.0199 91.9868C34.0199 91.4536 34.1371 90.9702 34.3715 90.5366C34.6058 90.0972 34.934 89.7222 35.3558 89.4116C35.7777 89.0952 36.2757 88.8521 36.85 88.6821C37.43 88.5122 38.0658 88.4272 38.7572 88.4272C39.7006 88.4272 40.5238 88.5972 41.2269 88.937C41.93 89.2769 42.475 89.7427 42.8617 90.3345C43.2543 90.9263 43.4506 91.603 43.4506 92.3647H40.8314C40.8314 91.9897 40.7523 91.6616 40.5941 91.3804C40.4418 91.0933 40.2074 90.8677 39.891 90.7036C39.5804 90.5396 39.1879 90.4575 38.7132 90.4575C38.2562 90.4575 37.8754 90.5278 37.5707 90.6685C37.266 90.8032 37.0375 90.9878 36.8851 91.2222C36.7328 91.4507 36.6566 91.7085 36.6566 91.9956C36.6566 92.2124 36.7093 92.4087 36.8148 92.5845C36.9261 92.7603 37.0902 92.9243 37.307 93.0767C37.5238 93.229 37.7904 93.3726 38.1068 93.5073C38.4232 93.6421 38.7894 93.7739 39.2054 93.9028C39.9027 94.1138 40.515 94.3511 41.0424 94.6147C41.5756 94.8784 42.0209 95.1743 42.3783 95.5024C42.7357 95.8306 43.0052 96.2026 43.1869 96.6187C43.3685 97.0347 43.4593 97.5063 43.4593 98.0337C43.4593 98.5903 43.3509 99.0884 43.1341 99.5278C42.9174 99.9673 42.6039 100.339 42.1937 100.644C41.7836 100.949 41.2943 101.18 40.7259 101.338C40.1576 101.497 39.5218 101.576 38.8187 101.576C38.1859 101.576 37.5619 101.494 36.9466 101.33C36.3314 101.16 35.7718 100.905 35.2679 100.565C34.7699 100.225 34.3715 99.7915 34.0726 99.2642C33.7738 98.7368 33.6244 98.1128 33.6244 97.3921H36.2699C36.2699 97.7905 36.3314 98.1274 36.4545 98.4028C36.5775 98.6782 36.7504 98.9009 36.973 99.0708C37.2015 99.2407 37.4711 99.3638 37.7816 99.4399C38.098 99.5161 38.4437 99.5542 38.8187 99.5542C39.2757 99.5542 39.6507 99.4897 39.9437 99.3608C40.2425 99.2319 40.4623 99.0532 40.6029 98.8247C40.7494 98.5962 40.8226 98.3384 40.8226 98.0513ZM51.7191 99.1235V91.8901H54.2504V101.4H51.8685L51.7191 99.1235ZM52.0004 97.1724L52.7474 97.1548C52.7474 97.7876 52.6742 98.3765 52.5277 98.9214C52.3812 99.4604 52.1615 99.9292 51.8685 100.328C51.5756 100.72 51.2064 101.028 50.7611 101.25C50.3158 101.467 49.7914 101.576 49.1879 101.576C48.725 101.576 48.2972 101.511 47.9047 101.382C47.5179 101.248 47.184 101.04 46.9027 100.758C46.6273 100.471 46.4105 100.105 46.2523 99.6597C46.1 99.2085 46.0238 98.6665 46.0238 98.0337V91.8901H48.555V98.0513C48.555 98.3325 48.5873 98.5698 48.6517 98.7632C48.722 98.9565 48.8187 99.1147 48.9418 99.2378C49.0648 99.3608 49.2084 99.4487 49.3724 99.5015C49.5424 99.5542 49.7299 99.5806 49.9349 99.5806C50.4564 99.5806 50.8666 99.4751 51.1654 99.2642C51.4701 99.0532 51.684 98.7661 51.807 98.4028C51.9359 98.0337 52.0004 97.6235 52.0004 97.1724ZM59.7152 93.7183V105.056H57.184V91.8901H59.5306L59.7152 93.7183ZM65.7357 96.5396V96.7241C65.7357 97.4155 65.6537 98.0571 65.4896 98.6489C65.3314 99.2407 65.097 99.7563 64.7865 100.196C64.4759 100.629 64.0892 100.969 63.6263 101.215C63.1693 101.456 62.642 101.576 62.0443 101.576C61.4642 101.576 60.9603 101.458 60.5326 101.224C60.1049 100.99 59.7445 100.662 59.4515 100.24C59.1644 99.812 58.933 99.3169 58.7572 98.7544C58.5814 98.1919 58.4466 97.5884 58.3529 96.9438V96.4604C58.4466 95.769 58.5814 95.1362 58.7572 94.562C58.933 93.9819 59.1644 93.481 59.4515 93.0591C59.7445 92.6313 60.1019 92.3003 60.5238 92.0659C60.9515 91.8315 61.4525 91.7144 62.0267 91.7144C62.6302 91.7144 63.1605 91.8286 63.6175 92.0571C64.0804 92.2856 64.4672 92.6138 64.7777 93.0415C65.0941 93.4692 65.3314 93.979 65.4896 94.5708C65.6537 95.1626 65.7357 95.8188 65.7357 96.5396ZM63.1957 96.7241V96.5396C63.1957 96.1353 63.1605 95.7632 63.0902 95.4233C63.0257 95.0776 62.9203 94.7759 62.7738 94.5181C62.6332 94.2603 62.4457 94.061 62.2113 93.9204C61.9828 93.7739 61.7045 93.7007 61.3763 93.7007C61.0306 93.7007 60.7347 93.7563 60.4886 93.8677C60.2484 93.979 60.0521 94.1401 59.8998 94.3511C59.7474 94.562 59.6332 94.814 59.557 95.1069C59.4808 95.3999 59.434 95.731 59.4164 96.1001V97.3218C59.4457 97.7554 59.5277 98.145 59.6625 98.4907C59.7972 98.8306 60.0052 99.1001 60.2865 99.2993C60.5677 99.4985 60.9369 99.5981 61.3939 99.5981C61.7279 99.5981 62.0091 99.5249 62.2377 99.3784C62.4662 99.2261 62.6507 99.0181 62.7914 98.7544C62.9379 98.4907 63.0404 98.186 63.099 97.8403C63.1634 97.4946 63.1957 97.1226 63.1957 96.7241ZM70.8402 93.7183V105.056H68.309V91.8901H70.6556L70.8402 93.7183ZM76.8607 96.5396V96.7241C76.8607 97.4155 76.7787 98.0571 76.6146 98.6489C76.4564 99.2407 76.222 99.7563 75.9115 100.196C75.6009 100.629 75.2142 100.969 74.7513 101.215C74.2943 101.456 73.767 101.576 73.1693 101.576C72.5892 101.576 72.0853 101.458 71.6576 101.224C71.2299 100.99 70.8695 100.662 70.5765 100.24C70.2894 99.812 70.058 99.3169 69.8822 98.7544C69.7064 98.1919 69.5716 97.5884 69.4779 96.9438V96.4604C69.5716 95.769 69.7064 95.1362 69.8822 94.562C70.058 93.9819 70.2894 93.481 70.5765 93.0591C70.8695 92.6313 71.2269 92.3003 71.6488 92.0659C72.0765 91.8315 72.5775 91.7144 73.1517 91.7144C73.7552 91.7144 74.2855 91.8286 74.7425 92.0571C75.2054 92.2856 75.5922 92.6138 75.9027 93.0415C76.2191 93.4692 76.4564 93.979 76.6146 94.5708C76.7787 95.1626 76.8607 95.8188 76.8607 96.5396ZM74.3207 96.7241V96.5396C74.3207 96.1353 74.2855 95.7632 74.2152 95.4233C74.1507 95.0776 74.0453 94.7759 73.8988 94.5181C73.7582 94.2603 73.5707 94.061 73.3363 93.9204C73.1078 93.7739 72.8295 93.7007 72.5013 93.7007C72.1556 93.7007 71.8597 93.7563 71.6136 93.8677C71.3734 93.979 71.1771 94.1401 71.0248 94.3511C70.8724 94.562 70.7582 94.814 70.682 95.1069C70.6058 95.3999 70.559 95.731 70.5414 96.1001V97.3218C70.5707 97.7554 70.6527 98.145 70.7875 98.4907C70.9222 98.8306 71.1302 99.1001 71.4115 99.2993C71.6927 99.4985 72.0619 99.5981 72.5189 99.5981C72.8529 99.5981 73.1341 99.5249 73.3627 99.3784C73.5912 99.2261 73.7757 99.0181 73.9164 98.7544C74.0629 98.4907 74.1654 98.186 74.224 97.8403C74.2884 97.4946 74.3207 97.1226 74.3207 96.7241ZM81.9652 93.9644V101.4H79.434V91.8901H81.8158L81.9652 93.9644ZM84.8304 91.8286L84.7865 94.1753C84.6634 94.1577 84.514 94.1431 84.3382 94.1313C84.1683 94.1138 84.0131 94.105 83.8724 94.105C83.515 94.105 83.2045 94.1519 82.9408 94.2456C82.683 94.3335 82.4662 94.4653 82.2904 94.6411C82.1205 94.8169 81.9916 95.0308 81.9037 95.2827C81.8216 95.5347 81.7748 95.8218 81.7631 96.144L81.2533 95.9858C81.2533 95.3706 81.3148 94.8052 81.4379 94.2896C81.5609 93.7681 81.7396 93.314 81.974 92.9272C82.2142 92.5405 82.5072 92.2417 82.8529 92.0308C83.1986 91.8198 83.5941 91.7144 84.0394 91.7144C84.18 91.7144 84.3236 91.7261 84.4701 91.7495C84.6166 91.7671 84.7367 91.7935 84.8304 91.8286ZM89.6976 91.8901V101.4H87.1576V91.8901H89.6976ZM86.9994 89.4116C86.9994 89.0425 87.1283 88.7378 87.3861 88.4976C87.6439 88.2573 87.9896 88.1372 88.4232 88.1372C88.8509 88.1372 89.1937 88.2573 89.4515 88.4976C89.7152 88.7378 89.847 89.0425 89.847 89.4116C89.847 89.7808 89.7152 90.0854 89.4515 90.3257C89.1937 90.5659 88.8509 90.686 88.4232 90.686C87.9896 90.686 87.6439 90.5659 87.3861 90.3257C87.1283 90.0854 86.9994 89.7808 86.9994 89.4116ZM95.3207 93.8589V101.4H92.7806V91.8901H95.1625L95.3207 93.8589ZM94.9691 96.311H94.266C94.266 95.6489 94.3451 95.0396 94.5033 94.4829C94.6674 93.9204 94.9047 93.4341 95.2152 93.0239C95.5316 92.6079 95.9213 92.2856 96.3841 92.0571C96.847 91.8286 97.3832 91.7144 97.9925 91.7144C98.4144 91.7144 98.8011 91.7788 99.1527 91.9077C99.5043 92.0308 99.806 92.2271 100.058 92.4966C100.316 92.7603 100.515 93.106 100.656 93.5337C100.796 93.9556 100.867 94.4624 100.867 95.0542V101.4H98.3353V95.3354C98.3353 94.9019 98.2767 94.5679 98.1595 94.3335C98.0424 94.0991 97.8754 93.9351 97.6586 93.8413C97.4476 93.7476 97.1927 93.7007 96.8939 93.7007C96.5658 93.7007 96.2787 93.7681 96.0326 93.9028C95.7924 94.0376 95.5931 94.2251 95.4349 94.4653C95.2767 94.6997 95.1595 94.9751 95.0834 95.2915C95.0072 95.6079 94.9691 95.9478 94.9691 96.311ZM100.629 96.021L99.724 96.1353C99.724 95.5142 99.8002 94.937 99.9525 94.4038C100.111 93.8706 100.342 93.4019 100.647 92.9976C100.957 92.5933 101.341 92.2798 101.798 92.0571C102.255 91.8286 102.783 91.7144 103.38 91.7144C103.837 91.7144 104.253 91.7817 104.628 91.9165C105.003 92.0454 105.323 92.2534 105.586 92.5405C105.856 92.8218 106.061 93.1909 106.202 93.6479C106.348 94.105 106.421 94.6646 106.421 95.3267V101.4H103.881V95.3267C103.881 94.8872 103.823 94.5532 103.705 94.3247C103.594 94.0903 103.43 93.9292 103.213 93.8413C103.002 93.7476 102.75 93.7007 102.457 93.7007C102.153 93.7007 101.886 93.7622 101.658 93.8853C101.429 94.0024 101.239 94.1665 101.086 94.3774C100.934 94.5884 100.82 94.8345 100.744 95.1157C100.667 95.3911 100.629 95.6929 100.629 96.021ZM113.758 101.576C113.02 101.576 112.358 101.458 111.772 101.224C111.186 100.984 110.688 100.653 110.278 100.231C109.873 99.8091 109.563 99.3198 109.346 98.7632C109.129 98.2007 109.021 97.603 109.021 96.9702V96.6187C109.021 95.8979 109.123 95.2388 109.328 94.6411C109.534 94.0435 109.827 93.5249 110.207 93.0854C110.594 92.646 111.063 92.3091 111.614 92.0747C112.164 91.8345 112.786 91.7144 113.477 91.7144C114.151 91.7144 114.748 91.8257 115.27 92.0483C115.791 92.271 116.228 92.5874 116.579 92.9976C116.937 93.4077 117.206 93.8999 117.388 94.4741C117.57 95.0425 117.661 95.6753 117.661 96.3726V97.4272H110.102V95.7397H115.173V95.5464C115.173 95.1948 115.109 94.8813 114.98 94.606C114.857 94.3247 114.669 94.1021 114.417 93.938C114.165 93.7739 113.843 93.6919 113.451 93.6919C113.117 93.6919 112.829 93.7651 112.589 93.9116C112.349 94.0581 112.153 94.2632 112 94.5269C111.854 94.7905 111.743 95.1011 111.666 95.4585C111.596 95.8101 111.561 96.1968 111.561 96.6187V96.9702C111.561 97.3511 111.614 97.7026 111.719 98.0249C111.83 98.3472 111.986 98.6255 112.185 98.8599C112.39 99.0942 112.636 99.2759 112.923 99.4048C113.216 99.5337 113.547 99.5981 113.916 99.5981C114.373 99.5981 114.798 99.5103 115.191 99.3345C115.589 99.1528 115.932 98.8804 116.219 98.5171L117.45 99.853C117.25 100.14 116.978 100.416 116.632 100.679C116.292 100.943 115.882 101.16 115.402 101.33C114.921 101.494 114.373 101.576 113.758 101.576ZM122.633 93.9644V101.4H120.102V91.8901H122.484L122.633 93.9644ZM125.498 91.8286L125.454 94.1753C125.331 94.1577 125.182 94.1431 125.006 94.1313C124.836 94.1138 124.681 94.105 124.54 94.105C124.183 94.105 123.872 94.1519 123.609 94.2456C123.351 94.3335 123.134 94.4653 122.958 94.6411C122.788 94.8169 122.66 95.0308 122.572 95.2827C122.49 95.5347 122.443 95.8218 122.431 96.144L121.921 95.9858C121.921 95.3706 121.983 94.8052 122.106 94.2896C122.229 93.7681 122.408 93.314 122.642 92.9272C122.882 92.5405 123.175 92.2417 123.521 92.0308C123.867 91.8198 124.262 91.7144 124.707 91.7144C124.848 91.7144 124.992 91.7261 125.138 91.7495C125.285 91.7671 125.405 91.7935 125.498 91.8286Z" fill="black"/>
</g>
<defs>
<filter id="filter0_d_298_160" x="0" y="0" width="158" height="128" filterUnits="userSpaceOnUse" color-interpolation-filters="sRGB">
<feFlood flood-opacity="0" result="BackgroundImageFix"/>
<feColorMatrix in="SourceAlpha" type="matrix" values="0 0 0 0 0 0 0 0 0 0 0 0 0 0 0 0 0 0 127 0" result="hardAlpha"/>
<feOffset dy="4"/>
<feGaussianBlur stdDeviation="2"/>
<feComposite in2="hardAlpha" operator="out"/>
<feColorMatrix type="matrix" values="0 0 0 0 0 0 0 0 0 0 0 0 0 0 0 0 0 0 0.25 0"/>
<feBlend mode="normal" in2="BackgroundImageFix" result="effect1_dropShadow_298_160"/>
<feBlend mode="normal" in="SourceGraphic" in2="effect1_dropShadow_298_160" result="shape"/>
</filter>
</defs>
</svg>
