<svg width="158" height="128" viewBox="0 0 158 128" fill="none" xmlns="http://www.w3.org/2000/svg">
<g filter="url(#filter0_d_298_101)">
<rect x="4" width="150" height="120" rx="30" fill="#F3F3F3"/>
<path fill-rule="evenodd" clip-rule="evenodd" d="M88.1497 27.12C87.7395 26.7097 87.1831 26.4792 86.6029 26.4792C86.0227 26.4792 85.4663 26.7097 85.0561 27.12L58.245 53.9311C57.9701 54.2059 57.7735 54.549 57.6753 54.925L54.7586 66.0913C54.5624 66.8427 54.7792 67.6418 55.3283 68.1909C55.8774 68.7401 56.6766 68.9569 57.4279 68.7606L68.5942 65.8439C68.9702 65.7457 69.3133 65.5491 69.5881 65.2743L96.3993 38.4631C97.2536 37.6089 97.2536 36.2238 96.3993 35.3695L88.1497 27.12ZM61.7583 56.605L86.6029 31.7603L91.7589 36.9163L66.9142 61.761L59.9353 63.5839L61.7583 56.605Z" fill="black"/>
<path d="M55.667 73.1459C54.4589 73.1459 53.4795 74.1253 53.4795 75.3334C53.4795 76.5415 54.4589 77.5209 55.667 77.5209H99.417C100.625 77.5209 101.604 76.5415 101.604 75.3334C101.604 74.1253 100.625 73.1459 99.417 73.1459H55.667Z" fill="black"/>
<path d="M41.3467 95.2031H43.5791L46.8662 104.599L50.1533 95.2031H52.3857L47.7627 108H45.9697L41.3467 95.2031ZM40.1426 95.2031H42.3662L42.7705 104.361V108H40.1426V95.2031ZM51.3662 95.2031H53.5986V108H50.9619V104.361L51.3662 95.2031ZM56.3477 103.342V103.157C56.3477 102.46 56.4473 101.818 56.6465 101.232C56.8457 100.641 57.1357 100.128 57.5166 99.6943C57.8975 99.2607 58.3662 98.9238 58.9229 98.6836C59.4795 98.4375 60.1182 98.3145 60.8389 98.3145C61.5596 98.3145 62.2012 98.4375 62.7637 98.6836C63.3262 98.9238 63.7979 99.2607 64.1787 99.6943C64.5654 100.128 64.8584 100.641 65.0576 101.232C65.2568 101.818 65.3564 102.46 65.3564 103.157V103.342C65.3564 104.033 65.2568 104.675 65.0576 105.267C64.8584 105.853 64.5654 106.365 64.1787 106.805C63.7979 107.238 63.3291 107.575 62.7725 107.815C62.2158 108.056 61.5771 108.176 60.8564 108.176C60.1357 108.176 59.4941 108.056 58.9316 107.815C58.375 107.575 57.9033 107.238 57.5166 106.805C57.1357 106.365 56.8457 105.853 56.6465 105.267C56.4473 104.675 56.3477 104.033 56.3477 103.342ZM58.8789 103.157V103.342C58.8789 103.74 58.9141 104.112 58.9844 104.458C59.0547 104.804 59.166 105.108 59.3184 105.372C59.4766 105.63 59.6816 105.832 59.9336 105.979C60.1855 106.125 60.4932 106.198 60.8564 106.198C61.208 106.198 61.5098 106.125 61.7617 105.979C62.0137 105.832 62.2158 105.63 62.3682 105.372C62.5205 105.108 62.6318 104.804 62.7021 104.458C62.7783 104.112 62.8164 103.74 62.8164 103.342V103.157C62.8164 102.771 62.7783 102.407 62.7021 102.067C62.6318 101.722 62.5176 101.417 62.3594 101.153C62.207 100.884 62.0049 100.673 61.7529 100.521C61.501 100.368 61.1963 100.292 60.8389 100.292C60.4814 100.292 60.1768 100.368 59.9248 100.521C59.6787 100.673 59.4766 100.884 59.3184 101.153C59.166 101.417 59.0547 101.722 58.9844 102.067C58.9141 102.407 58.8789 102.771 58.8789 103.157ZM73.5283 105.926V94.5H76.0771V108H73.7832L73.5283 105.926ZM67.5166 103.359V103.175C67.5166 102.448 67.5986 101.789 67.7627 101.197C67.9268 100.6 68.167 100.087 68.4834 99.6592C68.7998 99.2314 69.1895 98.9004 69.6523 98.666C70.1152 98.4316 70.6426 98.3145 71.2344 98.3145C71.791 98.3145 72.2773 98.4316 72.6934 98.666C73.1152 98.9004 73.4727 99.2344 73.7656 99.668C74.0645 100.096 74.3047 100.603 74.4863 101.188C74.668 101.769 74.7998 102.404 74.8818 103.096V103.5C74.7998 104.162 74.668 104.777 74.4863 105.346C74.3047 105.914 74.0645 106.412 73.7656 106.84C73.4727 107.262 73.1152 107.59 72.6934 107.824C72.2715 108.059 71.7793 108.176 71.2168 108.176C70.625 108.176 70.0977 108.056 69.6348 107.815C69.1777 107.575 68.791 107.238 68.4746 106.805C68.1641 106.371 67.9268 105.861 67.7627 105.275C67.5986 104.689 67.5166 104.051 67.5166 103.359ZM70.0479 103.175V103.359C70.0479 103.752 70.0771 104.118 70.1357 104.458C70.2002 104.798 70.3027 105.1 70.4434 105.363C70.5898 105.621 70.7773 105.823 71.0059 105.97C71.2402 106.11 71.5244 106.181 71.8584 106.181C72.292 106.181 72.6494 106.084 72.9307 105.891C73.2119 105.691 73.4258 105.419 73.5723 105.073C73.7246 104.728 73.8125 104.329 73.8359 103.878V102.727C73.8184 102.357 73.7656 102.026 73.6777 101.733C73.5957 101.435 73.4727 101.18 73.3086 100.969C73.1504 100.758 72.9512 100.594 72.7109 100.477C72.4766 100.359 72.1982 100.301 71.876 100.301C71.5479 100.301 71.2666 100.377 71.0322 100.529C70.7979 100.676 70.6074 100.878 70.4609 101.136C70.3203 101.394 70.2148 101.698 70.1445 102.05C70.0801 102.396 70.0479 102.771 70.0479 103.175ZM81.7266 98.4902V108H79.1865V98.4902H81.7266ZM79.0283 96.0117C79.0283 95.6426 79.1572 95.3379 79.415 95.0977C79.6729 94.8574 80.0186 94.7373 80.4521 94.7373C80.8799 94.7373 81.2227 94.8574 81.4805 95.0977C81.7441 95.3379 81.876 95.6426 81.876 96.0117C81.876 96.3809 81.7441 96.6855 81.4805 96.9258C81.2227 97.166 80.8799 97.2861 80.4521 97.2861C80.0186 97.2861 79.6729 97.166 79.415 96.9258C79.1572 96.6855 79.0283 96.3809 79.0283 96.0117ZM88.0439 108H85.4951V97.6465C85.4951 96.9258 85.6357 96.3193 85.917 95.8271C86.2041 95.3291 86.6055 94.9541 87.1211 94.7021C87.6426 94.4443 88.2607 94.3154 88.9756 94.3154C89.21 94.3154 89.4355 94.333 89.6523 94.3682C89.8691 94.3975 90.0801 94.4355 90.2852 94.4824L90.2588 96.3896C90.1475 96.3604 90.0303 96.3398 89.9072 96.3281C89.7842 96.3164 89.6406 96.3105 89.4766 96.3105C89.1719 96.3105 88.9111 96.3633 88.6943 96.4688C88.4834 96.5684 88.3223 96.7178 88.2109 96.917C88.0996 97.1162 88.0439 97.3594 88.0439 97.6465V108ZM89.9424 98.4902V100.283H84.0801V98.4902H89.9424ZM94.9414 98.4902V108H92.4014V98.4902H94.9414ZM92.2432 96.0117C92.2432 95.6426 92.3721 95.3379 92.6299 95.0977C92.8877 94.8574 93.2334 94.7373 93.667 94.7373C94.0947 94.7373 94.4375 94.8574 94.6953 95.0977C94.959 95.3379 95.0908 95.6426 95.0908 96.0117C95.0908 96.3809 94.959 96.6855 94.6953 96.9258C94.4375 97.166 94.0947 97.2861 93.667 97.2861C93.2334 97.2861 92.8877 97.166 92.6299 96.9258C92.3721 96.6855 92.2432 96.3809 92.2432 96.0117ZM102.41 108.176C101.672 108.176 101.01 108.059 100.424 107.824C99.8379 107.584 99.3398 107.253 98.9297 106.831C98.5254 106.409 98.2148 105.92 97.998 105.363C97.7812 104.801 97.6729 104.203 97.6729 103.57V103.219C97.6729 102.498 97.7754 101.839 97.9805 101.241C98.1855 100.644 98.4785 100.125 98.8594 99.6855C99.2461 99.2461 99.7148 98.9092 100.266 98.6748C100.816 98.4346 101.438 98.3145 102.129 98.3145C102.803 98.3145 103.4 98.4258 103.922 98.6484C104.443 98.8711 104.88 99.1875 105.231 99.5977C105.589 100.008 105.858 100.5 106.04 101.074C106.222 101.643 106.312 102.275 106.312 102.973V104.027H98.7539V102.34H103.825V102.146C103.825 101.795 103.761 101.481 103.632 101.206C103.509 100.925 103.321 100.702 103.069 100.538C102.817 100.374 102.495 100.292 102.103 100.292C101.769 100.292 101.481 100.365 101.241 100.512C101.001 100.658 100.805 100.863 100.652 101.127C100.506 101.391 100.395 101.701 100.318 102.059C100.248 102.41 100.213 102.797 100.213 103.219V103.57C100.213 103.951 100.266 104.303 100.371 104.625C100.482 104.947 100.638 105.226 100.837 105.46C101.042 105.694 101.288 105.876 101.575 106.005C101.868 106.134 102.199 106.198 102.568 106.198C103.025 106.198 103.45 106.11 103.843 105.935C104.241 105.753 104.584 105.48 104.871 105.117L106.102 106.453C105.902 106.74 105.63 107.016 105.284 107.279C104.944 107.543 104.534 107.76 104.054 107.93C103.573 108.094 103.025 108.176 102.41 108.176ZM111.285 100.564V108H108.754V98.4902H111.136L111.285 100.564ZM114.15 98.4287L114.106 100.775C113.983 100.758 113.834 100.743 113.658 100.731C113.488 100.714 113.333 100.705 113.192 100.705C112.835 100.705 112.524 100.752 112.261 100.846C112.003 100.934 111.786 101.065 111.61 101.241C111.44 101.417 111.312 101.631 111.224 101.883C111.142 102.135 111.095 102.422 111.083 102.744L110.573 102.586C110.573 101.971 110.635 101.405 110.758 100.89C110.881 100.368 111.06 99.9141 111.294 99.5273C111.534 99.1406 111.827 98.8418 112.173 98.6309C112.519 98.4199 112.914 98.3145 113.359 98.3145C113.5 98.3145 113.644 98.3262 113.79 98.3496C113.937 98.3672 114.057 98.3936 114.15 98.4287Z" fill="black"/>
</g>
<defs>
<filter id="filter0_d_298_101" x="0" y="0" width="158" height="128" filterUnits="userSpaceOnUse" color-interpolation-filters="sRGB">
<feFlood flood-opacity="0" result="BackgroundImageFix"/>
<feColorMatrix in="SourceAlpha" type="matrix" values="0 0 0 0 0 0 0 0 0 0 0 0 0 0 0 0 0 0 127 0" result="hardAlpha"/>
<feOffset dy="4"/>
<feGaussianBlur stdDeviation="2"/>
<feComposite in2="hardAlpha" operator="out"/>
<feColorMatrix type="matrix" values="0 0 0 0 0 0 0 0 0 0 0 0 0 0 0 0 0 0 0.25 0"/>
<feBlend mode="normal" in2="BackgroundImageFix" result="effect1_dropShadow_298_101"/>
<feBlend mode="normal" in="SourceGraphic" in2="effect1_dropShadow_298_101" result="shape"/>
</filter>
</defs>
</svg>
