<svg width="158" height="128" viewBox="0 0 158 128" fill="none" xmlns="http://www.w3.org/2000/svg">
<g filter="url(#filter0_d_298_163)">
<rect x="4" width="150" height="120" rx="30" fill="#F3F3F3"/>
<path fill-rule="evenodd" clip-rule="evenodd" d="M79.0001 30.4149L74.3901 35.1847C73.8995 35.6924 73.2237 35.9791 72.5176 35.9791H65.9793V42.5174C65.9793 43.2234 65.6926 43.8992 65.1849 44.3899L60.4151 48.9999L65.1849 53.6099C65.6926 54.1006 65.9793 54.7764 65.9793 55.4824V62.0207H72.5176C73.2237 62.0207 73.8995 62.3074 74.3901 62.8151L79.0001 67.5849L83.6101 62.8151C84.1008 62.3074 84.7766 62.0207 85.4827 62.0207H92.021V55.4824C92.021 54.7763 92.3077 54.1006 92.8154 53.6099L97.5851 48.9999L92.8154 44.3899C92.3077 43.8992 92.021 43.2234 92.021 42.5174V35.9791H85.4827C84.7766 35.9791 84.1008 35.6924 83.6101 35.1847L79.0001 30.4149ZM77.1276 27.8557C78.1513 26.7965 79.849 26.7965 80.8727 27.8557L85.7036 32.8541H92.5418C93.9801 32.8541 95.146 34.02 95.146 35.4582V42.2964L100.144 47.1274C101.204 48.1511 101.204 49.8487 100.144 50.8724L95.146 55.7034V62.5416C95.146 63.9798 93.98 65.1457 92.5418 65.1457H85.7036L80.8727 70.1441C79.849 71.2033 78.1513 71.2033 77.1276 70.1441L72.2967 65.1457H65.4585C64.0202 65.1457 62.8543 63.9798 62.8543 62.5416V55.7034L57.8559 50.8724C56.7967 49.8487 56.7967 48.1511 57.8559 47.1274L62.8543 42.2964V35.4582C62.8543 34.02 64.0202 32.8541 65.4585 32.8541H72.2967L77.1276 27.8557Z" fill="black"/>
<path fill-rule="evenodd" clip-rule="evenodd" d="M69.1043 48.9999C69.1043 43.5346 73.5348 39.1041 79.0001 39.1041C84.4655 39.1041 88.896 43.5346 88.896 48.9999C88.896 54.4652 84.4655 58.8957 79.0001 58.8957C73.5348 58.8957 69.1043 54.4652 69.1043 48.9999ZM79.0001 42.2291C75.2607 42.2291 72.2293 45.2605 72.2293 48.9999C72.2293 52.7393 75.2607 55.7707 79.0001 55.7707C82.7396 55.7707 85.771 52.7393 85.771 48.9999C85.771 45.2605 82.7396 42.2291 79.0001 42.2291Z" fill="black"/>
<path d="M43.1426 87.2031H47.915C48.8936 87.2031 49.7344 87.3496 50.4375 87.6426C51.1465 87.9355 51.6914 88.3691 52.0723 88.9434C52.4531 89.5176 52.6436 90.2236 52.6436 91.0615C52.6436 91.7471 52.5264 92.3359 52.292 92.8281C52.0635 93.3145 51.7383 93.7217 51.3164 94.0498C50.9004 94.3721 50.4111 94.6299 49.8486 94.8232L49.0137 95.2627H44.8652L44.8477 93.2061H47.9326C48.3955 93.2061 48.7793 93.124 49.084 92.96C49.3887 92.7959 49.6172 92.5674 49.7695 92.2744C49.9277 91.9814 50.0068 91.6416 50.0068 91.2549C50.0068 90.8447 49.9307 90.4902 49.7783 90.1914C49.626 89.8926 49.3945 89.6641 49.084 89.5059C48.7734 89.3477 48.3838 89.2686 47.915 89.2686H45.7793V100H43.1426V87.2031ZM50.2969 100L47.3789 94.2959L50.165 94.2783L53.1182 99.877V100H50.2969ZM59.8926 100.176C59.1543 100.176 58.4922 100.059 57.9062 99.8242C57.3203 99.584 56.8223 99.2529 56.4121 98.8311C56.0078 98.4092 55.6973 97.9199 55.4805 97.3633C55.2637 96.8008 55.1553 96.2031 55.1553 95.5703V95.2188C55.1553 94.498 55.2578 93.8389 55.4629 93.2412C55.668 92.6436 55.9609 92.125 56.3418 91.6855C56.7285 91.2461 57.1973 90.9092 57.748 90.6748C58.2988 90.4346 58.9199 90.3145 59.6113 90.3145C60.2852 90.3145 60.8828 90.4258 61.4043 90.6484C61.9258 90.8711 62.3623 91.1875 62.7139 91.5977C63.0713 92.0078 63.3408 92.5 63.5225 93.0742C63.7041 93.6426 63.7949 94.2754 63.7949 94.9727V96.0273H56.2363V94.3398H61.3076V94.1465C61.3076 93.7949 61.2432 93.4814 61.1143 93.2061C60.9912 92.9248 60.8037 92.7021 60.5518 92.5381C60.2998 92.374 59.9775 92.292 59.585 92.292C59.251 92.292 58.9639 92.3652 58.7236 92.5117C58.4834 92.6582 58.2871 92.8633 58.1348 93.127C57.9883 93.3906 57.877 93.7012 57.8008 94.0586C57.7305 94.4102 57.6953 94.7969 57.6953 95.2188V95.5703C57.6953 95.9512 57.748 96.3027 57.8535 96.625C57.9648 96.9473 58.1201 97.2256 58.3193 97.46C58.5244 97.6943 58.7705 97.876 59.0576 98.0049C59.3506 98.1338 59.6816 98.1982 60.0508 98.1982C60.5078 98.1982 60.9326 98.1104 61.3252 97.9346C61.7236 97.7529 62.0664 97.4805 62.3535 97.1172L63.584 98.4531C63.3848 98.7402 63.1123 99.0156 62.7666 99.2793C62.4268 99.543 62.0166 99.7598 61.5361 99.9297C61.0557 100.094 60.5078 100.176 59.8926 100.176ZM58.1084 89.1982L59.8311 86.4912H62.582L60.165 89.1982H58.1084ZM72.2568 90.4902H74.5508V99.6836C74.5508 100.551 74.3574 101.286 73.9707 101.89C73.5898 102.499 73.0566 102.959 72.3711 103.27C71.6855 103.586 70.8887 103.744 69.9805 103.744C69.582 103.744 69.1602 103.691 68.7148 103.586C68.2754 103.48 67.8535 103.316 67.4492 103.094C67.0508 102.871 66.7168 102.59 66.4473 102.25L67.5635 100.756C67.8564 101.096 68.1963 101.359 68.583 101.547C68.9697 101.74 69.3975 101.837 69.8662 101.837C70.3232 101.837 70.71 101.752 71.0264 101.582C71.3428 101.418 71.5859 101.175 71.7559 100.853C71.9258 100.536 72.0107 100.152 72.0107 99.7012V92.6875L72.2568 90.4902ZM65.8584 95.3594V95.1748C65.8584 94.4482 65.9463 93.7891 66.1221 93.1973C66.3037 92.5996 66.5586 92.0869 66.8867 91.6592C67.2207 91.2314 67.625 90.9004 68.0996 90.666C68.5742 90.4316 69.1104 90.3145 69.708 90.3145C70.3408 90.3145 70.8711 90.4316 71.2988 90.666C71.7266 90.9004 72.0781 91.2344 72.3535 91.668C72.6289 92.0957 72.8428 92.6025 72.9951 93.1885C73.1533 93.7686 73.2764 94.4043 73.3643 95.0957V95.5C73.2764 96.1621 73.1445 96.7773 72.9688 97.3457C72.793 97.9141 72.5615 98.4121 72.2744 98.8398C71.9873 99.2617 71.6299 99.5898 71.2021 99.8242C70.7803 100.059 70.2764 100.176 69.6904 100.176C69.1045 100.176 68.5742 100.056 68.0996 99.8154C67.6309 99.5752 67.2295 99.2383 66.8955 98.8047C66.5615 98.3711 66.3037 97.8613 66.1221 97.2754C65.9463 96.6895 65.8584 96.0508 65.8584 95.3594ZM68.3896 95.1748V95.3594C68.3896 95.752 68.4277 96.1182 68.5039 96.458C68.5801 96.7979 68.6973 97.0996 68.8555 97.3633C69.0195 97.6211 69.2217 97.8232 69.4619 97.9697C69.708 98.1104 69.998 98.1807 70.332 98.1807C70.7949 98.1807 71.1729 98.084 71.4658 97.8906C71.7588 97.6914 71.9785 97.4189 72.125 97.0732C72.2715 96.7275 72.3564 96.3291 72.3799 95.8779V94.7266C72.3682 94.3574 72.3184 94.0264 72.2305 93.7334C72.1426 93.4346 72.0195 93.1797 71.8613 92.9688C71.7031 92.7578 71.498 92.5938 71.2461 92.4766C70.9941 92.3594 70.6953 92.3008 70.3496 92.3008C70.0156 92.3008 69.7256 92.377 69.4795 92.5293C69.2393 92.6758 69.0371 92.8779 68.873 93.1357C68.7148 93.3936 68.5947 93.6982 68.5127 94.0498C68.4307 94.3955 68.3896 94.7705 68.3896 95.1748ZM80.1914 86.5V100H77.6514V86.5H80.1914ZM88.416 97.8555V93.6191C88.416 93.3145 88.3662 93.0537 88.2666 92.8369C88.167 92.6143 88.0117 92.4414 87.8008 92.3184C87.5957 92.1953 87.3291 92.1338 87.001 92.1338C86.7197 92.1338 86.4766 92.1836 86.2715 92.2832C86.0664 92.377 85.9082 92.5146 85.7969 92.6963C85.6855 92.8721 85.6299 93.0801 85.6299 93.3203H83.0986C83.0986 92.916 83.1924 92.5322 83.3799 92.1689C83.5674 91.8057 83.8398 91.4863 84.1973 91.2109C84.5547 90.9297 84.9795 90.71 85.4717 90.5518C85.9697 90.3936 86.5264 90.3145 87.1416 90.3145C87.8799 90.3145 88.5361 90.4375 89.1104 90.6836C89.6846 90.9297 90.1357 91.2988 90.4639 91.791C90.7979 92.2832 90.9648 92.8984 90.9648 93.6367V97.7061C90.9648 98.2275 90.9971 98.6553 91.0615 98.9893C91.126 99.3174 91.2197 99.6045 91.3428 99.8506V100H88.7852C88.6621 99.7422 88.5684 99.4199 88.5039 99.0332C88.4453 98.6406 88.416 98.248 88.416 97.8555ZM88.75 94.208L88.7676 95.6406H87.3525C87.0186 95.6406 86.7285 95.6787 86.4824 95.7549C86.2363 95.8311 86.0342 95.9395 85.876 96.0801C85.7178 96.2148 85.6006 96.373 85.5244 96.5547C85.4541 96.7363 85.4189 96.9355 85.4189 97.1523C85.4189 97.3691 85.4688 97.5654 85.5684 97.7412C85.668 97.9111 85.8115 98.0459 85.999 98.1455C86.1865 98.2393 86.4062 98.2861 86.6582 98.2861C87.0391 98.2861 87.3701 98.21 87.6514 98.0576C87.9326 97.9053 88.1494 97.7178 88.3018 97.4951C88.46 97.2725 88.542 97.0615 88.5479 96.8623L89.2158 97.9346C89.1221 98.1748 88.9932 98.4238 88.8291 98.6816C88.6709 98.9395 88.4688 99.1826 88.2227 99.4111C87.9766 99.6338 87.6807 99.8184 87.335 99.9648C86.9893 100.105 86.5791 100.176 86.1045 100.176C85.501 100.176 84.9531 100.056 84.4609 99.8154C83.9746 99.5693 83.5879 99.2324 83.3008 98.8047C83.0195 98.3711 82.8789 97.8789 82.8789 97.3281C82.8789 96.8301 82.9727 96.3877 83.1602 96.001C83.3477 95.6143 83.623 95.2891 83.9863 95.0254C84.3555 94.7559 84.8154 94.5537 85.3662 94.4189C85.917 94.2783 86.5557 94.208 87.2822 94.208H88.75ZM99.9365 90.4902H102.23V99.6836C102.23 100.551 102.037 101.286 101.65 101.89C101.27 102.499 100.736 102.959 100.051 103.27C99.3652 103.586 98.5684 103.744 97.6602 103.744C97.2617 103.744 96.8398 103.691 96.3945 103.586C95.9551 103.48 95.5332 103.316 95.1289 103.094C94.7305 102.871 94.3965 102.59 94.127 102.25L95.2432 100.756C95.5361 101.096 95.876 101.359 96.2627 101.547C96.6494 101.74 97.0771 101.837 97.5459 101.837C98.0029 101.837 98.3896 101.752 98.7061 101.582C99.0225 101.418 99.2656 101.175 99.4355 100.853C99.6055 100.536 99.6904 100.152 99.6904 99.7012V92.6875L99.9365 90.4902ZM93.5381 95.3594V95.1748C93.5381 94.4482 93.626 93.7891 93.8018 93.1973C93.9834 92.5996 94.2383 92.0869 94.5664 91.6592C94.9004 91.2314 95.3047 90.9004 95.7793 90.666C96.2539 90.4316 96.79 90.3145 97.3877 90.3145C98.0205 90.3145 98.5508 90.4316 98.9785 90.666C99.4062 90.9004 99.7578 91.2344 100.033 91.668C100.309 92.0957 100.522 92.6025 100.675 93.1885C100.833 93.7686 100.956 94.4043 101.044 95.0957V95.5C100.956 96.1621 100.824 96.7773 100.648 97.3457C100.473 97.9141 100.241 98.4121 99.9541 98.8398C99.667 99.2617 99.3096 99.5898 98.8818 99.8242C98.46 100.059 97.9561 100.176 97.3701 100.176C96.7842 100.176 96.2539 100.056 95.7793 99.8154C95.3105 99.5752 94.9092 99.2383 94.5752 98.8047C94.2412 98.3711 93.9834 97.8613 93.8018 97.2754C93.626 96.6895 93.5381 96.0508 93.5381 95.3594ZM96.0693 95.1748V95.3594C96.0693 95.752 96.1074 96.1182 96.1836 96.458C96.2598 96.7979 96.377 97.0996 96.5352 97.3633C96.6992 97.6211 96.9014 97.8232 97.1416 97.9697C97.3877 98.1104 97.6777 98.1807 98.0117 98.1807C98.4746 98.1807 98.8525 98.084 99.1455 97.8906C99.4385 97.6914 99.6582 97.4189 99.8047 97.0732C99.9512 96.7275 100.036 96.3291 100.06 95.8779V94.7266C100.048 94.3574 99.998 94.0264 99.9102 93.7334C99.8223 93.4346 99.6992 93.1797 99.541 92.9688C99.3828 92.7578 99.1777 92.5938 98.9258 92.4766C98.6738 92.3594 98.375 92.3008 98.0293 92.3008C97.6953 92.3008 97.4053 92.377 97.1592 92.5293C96.9189 92.6758 96.7168 92.8779 96.5527 93.1357C96.3945 93.3936 96.2744 93.6982 96.1924 94.0498C96.1104 94.3955 96.0693 94.7705 96.0693 95.1748ZM109.576 100.176C108.838 100.176 108.176 100.059 107.59 99.8242C107.004 99.584 106.506 99.2529 106.096 98.8311C105.691 98.4092 105.381 97.9199 105.164 97.3633C104.947 96.8008 104.839 96.2031 104.839 95.5703V95.2188C104.839 94.498 104.941 93.8389 105.146 93.2412C105.352 92.6436 105.645 92.125 106.025 91.6855C106.412 91.2461 106.881 90.9092 107.432 90.6748C107.982 90.4346 108.604 90.3145 109.295 90.3145C109.969 90.3145 110.566 90.4258 111.088 90.6484C111.609 90.8711 112.046 91.1875 112.397 91.5977C112.755 92.0078 113.024 92.5 113.206 93.0742C113.388 93.6426 113.479 94.2754 113.479 94.9727V96.0273H105.92V94.3398H110.991V94.1465C110.991 93.7949 110.927 93.4814 110.798 93.2061C110.675 92.9248 110.487 92.7021 110.235 92.5381C109.983 92.374 109.661 92.292 109.269 92.292C108.935 92.292 108.647 92.3652 108.407 92.5117C108.167 92.6582 107.971 92.8633 107.818 93.127C107.672 93.3906 107.561 93.7012 107.484 94.0586C107.414 94.4102 107.379 94.7969 107.379 95.2188V95.5703C107.379 95.9512 107.432 96.3027 107.537 96.625C107.648 96.9473 107.804 97.2256 108.003 97.46C108.208 97.6943 108.454 97.876 108.741 98.0049C109.034 98.1338 109.365 98.1982 109.734 98.1982C110.191 98.1982 110.616 98.1104 111.009 97.9346C111.407 97.7529 111.75 97.4805 112.037 97.1172L113.268 98.4531C113.068 98.7402 112.796 99.0156 112.45 99.2793C112.11 99.543 111.7 99.7598 111.22 99.9297C110.739 100.094 110.191 100.176 109.576 100.176Z" fill="black"/>
</g>
<defs>
<filter id="filter0_d_298_163" x="0" y="0" width="158" height="128" filterUnits="userSpaceOnUse" color-interpolation-filters="sRGB">
<feFlood flood-opacity="0" result="BackgroundImageFix"/>
<feColorMatrix in="SourceAlpha" type="matrix" values="0 0 0 0 0 0 0 0 0 0 0 0 0 0 0 0 0 0 127 0" result="hardAlpha"/>
<feOffset dy="4"/>
<feGaussianBlur stdDeviation="2"/>
<feComposite in2="hardAlpha" operator="out"/>
<feColorMatrix type="matrix" values="0 0 0 0 0 0 0 0 0 0 0 0 0 0 0 0 0 0 0.25 0"/>
<feBlend mode="normal" in2="BackgroundImageFix" result="effect1_dropShadow_298_163"/>
<feBlend mode="normal" in="SourceGraphic" in2="effect1_dropShadow_298_163" result="shape"/>
</filter>
</defs>
</svg>
