<svg width="1008" height="58" viewBox="0 0 1008 58" fill="none" xmlns="http://www.w3.org/2000/svg">
<g filter="url(#filter0_d_305_110)">
<rect x="4" width="1000" height="50" rx="25" fill="#F3F3F3"/>
<path d="M43.6758 29.4375L47.6953 15.9375H51.6094L45.668 33H43.0898L43.6758 29.4375ZM39.9727 15.9375L43.9805 29.4375L44.5898 33H41.9883L36.082 15.9375H39.9727ZM68.0547 24.0703V24.8789C68.0547 26.1758 67.8789 27.3398 67.5273 28.3711C67.1758 29.4023 66.6797 30.2812 66.0391 31.0078C65.3984 31.7266 64.6328 32.2773 63.7422 32.6602C62.8594 33.043 61.8789 33.2344 60.8008 33.2344C59.7305 33.2344 58.75 33.043 57.8594 32.6602C56.9766 32.2773 56.2109 31.7266 55.5625 31.0078C54.9141 30.2812 54.4102 29.4023 54.0508 28.3711C53.6992 27.3398 53.5234 26.1758 53.5234 24.8789V24.0703C53.5234 22.7656 53.6992 21.6016 54.0508 20.5781C54.4023 19.5469 54.8984 18.668 55.5391 17.9414C56.1875 17.2148 56.9531 16.6602 57.8359 16.2773C58.7266 15.8945 59.707 15.7031 60.7773 15.7031C61.8555 15.7031 62.8359 15.8945 63.7188 16.2773C64.6094 16.6602 65.375 17.2148 66.0156 17.9414C66.6641 18.668 67.1641 19.5469 67.5156 20.5781C67.875 21.6016 68.0547 22.7656 68.0547 24.0703ZM64.5039 24.8789V24.0469C64.5039 23.1406 64.4219 22.3438 64.2578 21.6562C64.0938 20.9688 63.8516 20.3906 63.5312 19.9219C63.2109 19.4531 62.8203 19.1016 62.3594 18.8672C61.8984 18.625 61.3711 18.5039 60.7773 18.5039C60.1836 18.5039 59.6562 18.625 59.1953 18.8672C58.7422 19.1016 58.3555 19.4531 58.0352 19.9219C57.7227 20.3906 57.4844 20.9688 57.3203 21.6562C57.1562 22.3438 57.0742 23.1406 57.0742 24.0469V24.8789C57.0742 25.7773 57.1562 26.5742 57.3203 27.2695C57.4844 27.957 57.7266 28.5391 58.0469 29.0156C58.3672 29.4844 58.7578 29.8398 59.2188 30.082C59.6797 30.3242 60.207 30.4453 60.8008 30.4453C61.3945 30.4453 61.9219 30.3242 62.3828 30.082C62.8438 29.8398 63.2305 29.4844 63.543 29.0156C63.8555 28.5391 64.0938 27.957 64.2578 27.2695C64.4219 26.5742 64.5039 25.7773 64.5039 24.8789ZM80.4688 28.5352C80.4688 28.2305 80.4219 27.957 80.3281 27.7148C80.2422 27.4648 80.0781 27.2383 79.8359 27.0352C79.5938 26.8242 79.2539 26.6172 78.8164 26.4141C78.3789 26.2109 77.8125 26 77.1172 25.7812C76.3438 25.5312 75.6094 25.25 74.9141 24.9375C74.2266 24.625 73.6172 24.2617 73.0859 23.8477C72.5625 23.4258 72.1484 22.9375 71.8438 22.3828C71.5469 21.8281 71.3984 21.1836 71.3984 20.4492C71.3984 19.7383 71.5547 19.0938 71.8672 18.5156C72.1797 17.9297 72.6172 17.4297 73.1797 17.0156C73.7422 16.5938 74.4062 16.2695 75.1719 16.043C75.9453 15.8164 76.793 15.7031 77.7148 15.7031C78.9727 15.7031 80.0703 15.9297 81.0078 16.3828C81.9453 16.8359 82.6719 17.457 83.1875 18.2461C83.7109 19.0352 83.9727 19.9375 83.9727 20.9531H80.4805C80.4805 20.4531 80.375 20.0156 80.1641 19.6406C79.9609 19.2578 79.6484 18.957 79.2266 18.7383C78.8125 18.5195 78.2891 18.4102 77.6562 18.4102C77.0469 18.4102 76.5391 18.5039 76.1328 18.6914C75.7266 18.8711 75.4219 19.1172 75.2188 19.4297C75.0156 19.7344 74.9141 20.0781 74.9141 20.4609C74.9141 20.75 74.9844 21.0117 75.125 21.2461C75.2734 21.4805 75.4922 21.6992 75.7812 21.9023C76.0703 22.1055 76.4258 22.2969 76.8477 22.4766C77.2695 22.6562 77.7578 22.832 78.3125 23.0039C79.2422 23.2852 80.0586 23.6016 80.7617 23.9531C81.4727 24.3047 82.0664 24.6992 82.543 25.1367C83.0195 25.5742 83.3789 26.0703 83.6211 26.625C83.8633 27.1797 83.9844 27.8086 83.9844 28.5117C83.9844 29.2539 83.8398 29.918 83.5508 30.5039C83.2617 31.0898 82.8438 31.5859 82.2969 31.9922C81.75 32.3984 81.0977 32.707 80.3398 32.918C79.582 33.1289 78.7344 33.2344 77.7969 33.2344C76.9531 33.2344 76.1211 33.125 75.3008 32.9062C74.4805 32.6797 73.7344 32.3398 73.0625 31.8867C72.3984 31.4336 71.8672 30.8555 71.4688 30.1523C71.0703 29.4492 70.8711 28.6172 70.8711 27.6562H74.3984C74.3984 28.1875 74.4805 28.6367 74.6445 29.0039C74.8086 29.3711 75.0391 29.668 75.3359 29.8945C75.6406 30.1211 76 30.2852 76.4141 30.3867C76.8359 30.4883 77.2969 30.5391 77.7969 30.5391C78.4062 30.5391 78.9062 30.4531 79.2969 30.2812C79.6953 30.1094 79.9883 29.8711 80.1758 29.5664C80.3711 29.2617 80.4688 28.918 80.4688 28.5352ZM100.996 26.918H96.6484V24.1758H100.996C101.668 24.1758 102.215 24.0664 102.637 23.8477C103.059 23.6211 103.367 23.3086 103.562 22.9102C103.758 22.5117 103.855 22.0625 103.855 21.5625C103.855 21.0547 103.758 20.582 103.562 20.1445C103.367 19.707 103.059 19.3555 102.637 19.0898C102.215 18.8242 101.668 18.6914 100.996 18.6914H97.8672V33H94.3516V15.9375H100.996C102.332 15.9375 103.477 16.1797 104.43 16.6641C105.391 17.1406 106.125 17.8008 106.633 18.6445C107.141 19.4883 107.395 20.4531 107.395 21.5391C107.395 22.6406 107.141 23.5938 106.633 24.3984C106.125 25.2031 105.391 25.8242 104.43 26.2617C103.477 26.6992 102.332 26.918 100.996 26.918ZM115.812 18.8555L111.172 33H107.434L113.773 15.9375H116.152L115.812 18.8555ZM119.668 33L115.016 18.8555L114.641 15.9375H117.043L123.418 33H119.668ZM119.457 26.6484V29.4023H110.445V26.6484H119.457ZM139.312 24.082V30.8438C139.047 31.1641 138.637 31.5117 138.082 31.8867C137.527 32.2539 136.812 32.5703 135.938 32.8359C135.062 33.1016 134.004 33.2344 132.762 33.2344C131.66 33.2344 130.656 33.0547 129.75 32.6953C128.844 32.3281 128.062 31.793 127.406 31.0898C126.758 30.3867 126.258 29.5273 125.906 28.5117C125.555 27.4883 125.379 26.3203 125.379 25.0078V23.9414C125.379 22.6289 125.547 21.4609 125.883 20.4375C126.227 19.4141 126.715 18.5508 127.348 17.8477C127.98 17.1445 128.734 16.6094 129.609 16.2422C130.484 15.875 131.457 15.6914 132.527 15.6914C134.012 15.6914 135.23 15.9336 136.184 16.418C137.137 16.8945 137.863 17.5586 138.363 18.4102C138.871 19.2539 139.184 20.2227 139.301 21.3164H135.891C135.805 20.7383 135.641 20.2344 135.398 19.8047C135.156 19.375 134.809 19.0391 134.355 18.7969C133.91 18.5547 133.332 18.4336 132.621 18.4336C132.035 18.4336 131.512 18.5547 131.051 18.7969C130.598 19.0312 130.215 19.3789 129.902 19.8398C129.59 20.3008 129.352 20.8711 129.188 21.5508C129.023 22.2305 128.941 23.0195 128.941 23.918V25.0078C128.941 25.8984 129.027 26.6875 129.199 27.375C129.371 28.0547 129.625 28.6289 129.961 29.0977C130.305 29.5586 130.727 29.9062 131.227 30.1406C131.727 30.375 132.309 30.4922 132.973 30.4922C133.527 30.4922 133.988 30.4453 134.355 30.3516C134.73 30.2578 135.031 30.1445 135.258 30.0117C135.492 29.8711 135.672 29.7383 135.797 29.6133V26.5898H132.586V24.082H139.312ZM154.598 30.2578V33H145.516V30.2578H154.598ZM146.664 15.9375V33H143.148V15.9375H146.664ZM153.414 22.8867V25.5586H145.516V22.8867H153.414ZM154.586 15.9375V18.6914H145.516V15.9375H154.586ZM166.531 28.5352C166.531 28.2305 166.484 27.957 166.391 27.7148C166.305 27.4648 166.141 27.2383 165.898 27.0352C165.656 26.8242 165.316 26.6172 164.879 26.4141C164.441 26.2109 163.875 26 163.18 25.7812C162.406 25.5312 161.672 25.25 160.977 24.9375C160.289 24.625 159.68 24.2617 159.148 23.8477C158.625 23.4258 158.211 22.9375 157.906 22.3828C157.609 21.8281 157.461 21.1836 157.461 20.4492C157.461 19.7383 157.617 19.0938 157.93 18.5156C158.242 17.9297 158.68 17.4297 159.242 17.0156C159.805 16.5938 160.469 16.2695 161.234 16.043C162.008 15.8164 162.855 15.7031 163.777 15.7031C165.035 15.7031 166.133 15.9297 167.07 16.3828C168.008 16.8359 168.734 17.457 169.25 18.2461C169.773 19.0352 170.035 19.9375 170.035 20.9531H166.543C166.543 20.4531 166.438 20.0156 166.227 19.6406C166.023 19.2578 165.711 18.957 165.289 18.7383C164.875 18.5195 164.352 18.4102 163.719 18.4102C163.109 18.4102 162.602 18.5039 162.195 18.6914C161.789 18.8711 161.484 19.1172 161.281 19.4297C161.078 19.7344 160.977 20.0781 160.977 20.4609C160.977 20.75 161.047 21.0117 161.188 21.2461C161.336 21.4805 161.555 21.6992 161.844 21.9023C162.133 22.1055 162.488 22.2969 162.91 22.4766C163.332 22.6562 163.82 22.832 164.375 23.0039C165.305 23.2852 166.121 23.6016 166.824 23.9531C167.535 24.3047 168.129 24.6992 168.605 25.1367C169.082 25.5742 169.441 26.0703 169.684 26.625C169.926 27.1797 170.047 27.8086 170.047 28.5117C170.047 29.2539 169.902 29.918 169.613 30.5039C169.324 31.0898 168.906 31.5859 168.359 31.9922C167.812 32.3984 167.16 32.707 166.402 32.918C165.645 33.1289 164.797 33.2344 163.859 33.2344C163.016 33.2344 162.184 33.125 161.363 32.9062C160.543 32.6797 159.797 32.3398 159.125 31.8867C158.461 31.4336 157.93 30.8555 157.531 30.1523C157.133 29.4492 156.934 28.6172 156.934 27.6562H160.461C160.461 28.1875 160.543 28.6367 160.707 29.0039C160.871 29.3711 161.102 29.668 161.398 29.8945C161.703 30.1211 162.062 30.2852 162.477 30.3867C162.898 30.4883 163.359 30.5391 163.859 30.5391C164.469 30.5391 164.969 30.4531 165.359 30.2812C165.758 30.1094 166.051 29.8711 166.238 29.5664C166.434 29.2617 166.531 28.918 166.531 28.5352Z" fill="black"/>
<path fill-rule="evenodd" clip-rule="evenodd" d="M214.936 35.9658C214.26 36.6167 213.363 37.0354 212.376 37.106L209.646 37.3013C203.889 37.7132 198.111 37.7132 192.355 37.3013L189.831 37.1208C187.838 36.9782 186.194 35.5046 185.834 33.5386C185.107 29.5555 184.982 25.4855 185.465 21.4653L185.919 17.6834C186.188 15.439 188.092 13.75 190.353 13.75H194.172C196.035 13.75 197.587 15.0808 197.93 16.8435L211.787 16.8435C213.964 16.8435 215.819 18.4256 216.162 20.5756L216.269 21.2446C216.291 21.3852 216.313 21.5259 216.334 21.6667H216.894C219.348 21.6667 221.035 24.133 220.146 26.4202L218.063 31.7749C217.417 33.4377 216.332 34.8835 214.936 35.9658ZM213.693 20.9696L213.8 21.6387C213.802 21.648 213.803 21.6573 213.805 21.6667H198.284C196.391 21.6667 194.693 22.8302 194.01 24.5954L190.124 34.6353L190.01 34.6272C189.154 34.5659 188.448 33.9333 188.294 33.0893C187.611 29.3527 187.494 25.5347 187.947 21.7633L188.401 17.9815C188.52 16.9935 189.358 16.25 190.353 16.25H194.172C194.906 16.25 195.5 16.8445 195.5 17.5779C195.5 18.5531 196.291 19.3435 197.266 19.3435H211.787C212.736 19.3435 213.544 20.0328 213.693 20.9696ZM192.732 34.8218C198.304 35.211 203.896 35.2063 209.467 34.8077L212.197 34.6124L212.522 34.5821L212.519 34.578C213.987 33.7499 215.122 32.4393 215.733 30.8688L217.816 25.5141C218.068 24.8658 217.589 24.1667 216.894 24.1667H198.284C197.424 24.1667 196.652 24.6956 196.341 25.4979L192.732 34.8218Z" fill="black"/>
</g>
<defs>
<filter id="filter0_d_305_110" x="0" y="0" width="1008" height="58" filterUnits="userSpaceOnUse" color-interpolation-filters="sRGB">
<feFlood flood-opacity="0" result="BackgroundImageFix"/>
<feColorMatrix in="SourceAlpha" type="matrix" values="0 0 0 0 0 0 0 0 0 0 0 0 0 0 0 0 0 0 127 0" result="hardAlpha"/>
<feOffset dy="4"/>
<feGaussianBlur stdDeviation="2"/>
<feComposite in2="hardAlpha" operator="out"/>
<feColorMatrix type="matrix" values="0 0 0 0 0 0 0 0 0 0 0 0 0 0 0 0 0 0 0.25 0"/>
<feBlend mode="normal" in2="BackgroundImageFix" result="effect1_dropShadow_305_110"/>
<feBlend mode="normal" in="SourceGraphic" in2="effect1_dropShadow_305_110" result="shape"/>
</filter>
</defs>
</svg>
