<svg width="24" height="24" viewBox="0 0 24 24" fill="none" xmlns="http://www.w3.org/2000/svg">
<path fill-rule="evenodd" clip-rule="evenodd" d="M15.0215 3.34346C15.5299 3.25638 16.0992 3.2273 16.635 3.31795C17.5918 3.47983 18.4757 3.92456 19.1744 4.59132C19.6311 4.60165 20.0799 4.51167 20.477 4.38341C20.8131 4.27486 21.097 4.14379 21.296 4.04015C21.3949 3.98862 21.4713 3.94466 21.521 3.9149C21.5458 3.90005 21.5638 3.8888 21.5745 3.88201L21.5841 3.87595C21.8809 3.67822 22.2761 3.7167 22.529 3.96821C22.7819 4.21977 22.8226 4.61469 22.6264 4.9126C22.4187 5.22789 22.1303 5.78996 21.8073 6.41972C21.7565 6.51874 21.7048 6.61943 21.6525 6.7211C21.4672 7.08107 21.2772 7.44488 21.1001 7.75701C20.9889 7.953 20.87 8.15197 20.7501 8.32392V8.59769C20.7577 9.60332 20.6424 10.6037 20.4083 11.5769C20.261 12.1893 20.0667 12.7909 19.8265 13.3762C19.2041 14.8929 18.2857 16.2703 17.1249 17.4281C15.9642 18.5858 14.5844 19.5007 13.0662 20.1192C11.5492 20.7372 9.9245 21.047 8.28665 21.0306C5.91234 21.0326 3.58798 20.3486 1.59326 19.0607C1.29945 18.871 1.17576 18.5034 1.29509 18.1747C1.41443 17.8459 1.74512 17.6433 2.09219 17.6863C2.39255 17.7234 2.69496 17.7416 2.99762 17.7406C4.08507 17.7375 5.15181 17.4973 6.12567 17.0446C5.81612 16.9037 5.52058 16.73 5.24443 16.5252C4.43271 15.9233 3.8288 15.0833 3.51673 14.1222C3.43564 13.8724 3.49108 13.5985 3.66289 13.3999C3.66597 13.3963 3.66908 13.3928 3.67221 13.3893C3.48869 13.2257 3.31696 13.0475 3.15886 12.8558C2.44754 11.9936 2.05587 10.9122 2.05009 9.79447L2.05007 9.79059L2.05008 9.74059C2.05008 9.47472 2.19083 9.22873 2.42003 9.09401C2.47813 9.05986 2.53972 9.03415 2.60307 9.01691C2.26473 8.34183 2.08879 7.59638 2.09007 6.84012C2.08968 5.98336 2.31347 5.14139 2.73923 4.39789C2.86214 4.18325 3.08297 4.04301 3.3295 4.02304C3.57603 4.00306 3.81656 4.10591 3.97242 4.29796C4.93498 5.48397 6.13626 6.45423 7.49825 7.1457C8.19839 7.50115 8.93294 7.77885 9.68874 7.97528C10.1125 8.08541 10.5429 8.17 10.9777 8.22843C10.9585 7.50517 11.1013 6.7823 11.4011 6.11437C11.8407 5.13454 12.5932 4.32837 13.5404 3.82227C13.9416 3.60794 14.4741 3.43723 15.0215 3.34346ZM3.74335 10.891C3.873 11.2558 4.06586 11.5982 4.31592 11.9013C4.80724 12.4968 5.48919 12.9044 6.24641 13.055C6.58369 13.1221 6.83213 13.41 6.84916 13.7535C6.86618 14.0969 6.64743 14.408 6.31843 14.5081C6.04594 14.591 5.76676 14.6488 5.48441 14.6809C5.67099 14.9214 5.89047 15.1368 6.13787 15.3203C6.69906 15.7364 7.376 15.9673 8.07451 15.9807C8.39143 15.9868 8.6703 16.1915 8.77112 16.492C8.87195 16.7925 8.77296 17.124 8.52386 17.32C7.47469 18.1455 6.26149 18.7212 4.97594 19.0151C6.04142 19.3563 7.15887 19.532 8.28916 19.5306L8.29786 19.5306C9.73792 19.5455 11.1665 19.2734 12.5002 18.7301C13.8339 18.1867 15.046 17.3831 16.0656 16.3661C17.0853 15.3491 17.892 14.1391 18.4388 12.8067C18.6498 12.2925 18.8205 11.7641 18.9499 11.2261C19.1557 10.3704 19.257 9.49072 19.2501 8.60645L19.2501 8.60059V8.07059C19.2501 7.88873 19.3161 7.71307 19.436 7.5763C19.5053 7.49726 19.6264 7.3147 19.7955 7.0168C19.9561 6.73368 20.1339 6.39377 20.3188 6.03459C20.33 6.01286 20.3412 5.99103 20.3525 5.96909C19.8729 6.07324 19.3293 6.12783 18.7595 6.06624C18.579 6.04674 18.4118 5.96245 18.2887 5.82901C17.7858 5.28368 17.1162 4.92067 16.3848 4.79693C16.0602 4.74202 15.6679 4.75459 15.2748 4.82193C14.8477 4.89509 14.476 5.0231 14.2473 5.14528C13.593 5.49485 13.0733 6.05169 12.7696 6.72848C12.4659 7.40526 12.3954 8.16371 12.5692 8.88487C12.6246 9.11478 12.5683 9.35736 12.4174 9.53939C12.2664 9.72142 12.0384 9.82158 11.8022 9.80963C10.9588 9.76697 10.1243 9.63832 9.31142 9.42705C8.45152 9.20356 7.61579 8.88761 6.81921 8.4832C5.64643 7.88779 4.57838 7.11069 3.65354 6.183C3.61135 6.39861 3.58993 6.61864 3.59008 6.84009L3.59007 6.84201C3.58903 7.39273 3.72418 7.93516 3.98349 8.42101C4.2428 8.90686 4.61822 9.32105 5.07633 9.6267C5.35436 9.8122 5.47608 10.1593 5.37483 10.4778C5.27358 10.7963 4.97378 11.0094 4.63968 11.0003C4.33708 10.9921 4.03702 10.9553 3.74335 10.891Z" fill="white"/>
</svg>
